<svg xmlns="http://www.w3.org/2000/svg" viewBox="0 0 500 500"><g id="freepik--Floor--inject-16"><ellipse id="freepik--floor--inject-16" cx="250.24" cy="345.93" rx="239.41" ry="138.22" style="fill:#f0f0f0"></ellipse></g><g id="freepik--Shadows--inject-16"><path id="freepik--Shadow--inject-16" d="M151.33,438.92,26.72,365.26c-2.29-1.33-2.29-3.47,0-4.79L255,228.68a9.13,9.13,0,0,1,8.3,0l124.6,73.66c2.29,1.32,2.29,3.46,0,4.79L159.63,438.92A9.19,9.19,0,0,1,151.33,438.92Z" style="fill:#e0e0e0"></path><ellipse id="freepik--shadow--inject-16" cx="399.04" cy="383.74" rx="35.57" ry="20.54" style="fill:#e0e0e0"></ellipse></g><g id="freepik--Device--inject-16"><g id="freepik--device--inject-16"><path d="M208.32,345.59l34.94-20.2c3.6-2.08,5.4-4.8,5.4-7.53s0-4.86,0-4.86l-36.25-20.44a7.68,7.68,0,0,1-3.48-6V243.47l-61,35.26V321.8a7.7,7.7,0,0,0,3.48,6l30.84,17.76C189.44,349.75,201.12,349.75,208.32,345.59Z" style="fill:#2B003F"></path><g style="opacity:0.6000000000000001"><path d="M208.32,345.59l34.94-20.2c3.6-2.08,5.4-4.8,5.4-7.53s0-4.86,0-4.86l-36.25-20.44a7.68,7.68,0,0,1-3.48-6V243.47l-61,35.26V321.8a7.7,7.7,0,0,0,3.48,6l30.84,17.76C189.44,349.75,201.12,349.75,208.32,345.59Z"></path></g><path d="M162.58,329.43v4.84l-11.19-6.45a7.67,7.67,0,0,1-3.47-6V278.73L159.54,272c.24,3,.51,6,.75,9l-8.16,4.72v33.65a7.63,7.63,0,0,0,3.48,6Z" style="opacity:0.30000000000000004"></path><path d="M152.13,319.38a7.68,7.68,0,0,0,3.48,6l26.62,15.34c7.2,4.15,18.88,4.16,26.09,0l35-20.2c7.21-4.16,7.21-10.9,0-15.06l-26.63-15.34a7.67,7.67,0,0,1-3.48-6V250.46l-61,35.26Z" style="fill:#2B003F"></path><path d="M152.13,319.38a7.68,7.68,0,0,0,3.48,6l26.62,15.34c7.2,4.15,18.88,4.16,26.09,0l35-20.2c7.21-4.16,7.21-10.9,0-15.06l-26.63-15.34a7.67,7.67,0,0,1-3.48-6V250.46l-61,35.26Z" style="opacity:0.30000000000000004"></path><path d="M223.72,294.23h0l-7.08-4.09a7.67,7.67,0,0,1-3.48-6V250.46l-61,35.26v33.66a7.68,7.68,0,0,0,3.48,6l7,4Z" style="opacity:0.5"></path><path d="M248.67,313v4.86c0,2.73-1.81,5.44-5.4,7.53l-35,20.19a26.23,26.23,0,0,1-12.45,3.09v-4.84a26.23,26.23,0,0,0,12.45-3.09l35-20.21C246.86,318.47,248.67,315.74,248.67,313Z" style="fill:#2B003F"></path><path d="M248.67,313v4.86c0,2.73-1.81,5.44-5.4,7.53l-35,20.19a26.23,26.23,0,0,1-12.45,3.09v-4.84a26.23,26.23,0,0,0,12.45-3.09l35-20.21C246.86,318.47,248.67,315.74,248.67,313Z" style="opacity:0.5"></path><path d="M54.15,361.21a9.35,9.35,0,0,0,8.43-.15l236-136.25a9.62,9.62,0,0,0,4.35-7.53V26.36A9.32,9.32,0,0,0,298.84,19a9.3,9.3,0,0,0-8.42.16L54.42,155.4a9.58,9.58,0,0,0-4.34,7.52V353.84A9.32,9.32,0,0,0,54.15,361.21Z" style="fill:#2B003F"></path><path d="M62.58,361.05l236-136.25a9.61,9.61,0,0,0,4.35-7.53V26.36c0-2.77-1.95-3.9-4.35-2.51L62.58,160.1a9.61,9.61,0,0,0-4.35,7.53V358.54C58.23,361.31,60.18,362.44,62.58,361.05Z" style="fill:#2B003F"></path><path d="M62.58,361.05l236-136.25a9.61,9.61,0,0,0,4.35-7.53V26.36c0-2.77-1.95-3.9-4.35-2.51L62.58,160.1a9.61,9.61,0,0,0-4.35,7.53V358.54C58.23,361.31,60.18,362.44,62.58,361.05Z" style="opacity:0.5"></path><path d="M61.94,366a9.34,9.34,0,0,1-7.79-.16,9.33,9.33,0,0,1-4.08-7.39V341.08l8.15,4.72v17.38C58.22,365.71,59.83,366.86,61.94,366Z" style="fill:#2B003F"></path><path d="M61.94,366a9.34,9.34,0,0,1-7.79-.16,9.33,9.33,0,0,1-4.08-7.39V341.08l8.15,4.72v17.38C58.22,365.71,59.83,366.86,61.94,366Z" style="opacity:0.5"></path><path d="M58.22,345.8v17.38c0,2.77,2,3.89,4.35,2.51l236-136.25a9.62,9.62,0,0,0,4.35-7.53V204.49Z" style="fill:#2B003F"></path><path d="M58.23,345.76v17.42c0,2.77,2,3.89,4.35,2.51l236-136.25a9.62,9.62,0,0,0,4.35-7.53V204.49Z" style="opacity:0.30000000000000004"></path><path d="M66.38,324V170.33a5.75,5.75,0,0,1,2.6-4.51L292.15,37c1.44-.83,2.61-.16,2.61,1.5V192.14a5.76,5.76,0,0,1-2.61,4.52L69,325.5C67.55,326.33,66.38,325.65,66.38,324Z" style="fill:#2B003F"></path><path d="M66.38,324V170.33a5.75,5.75,0,0,1,2.6-4.51L292.15,37c1.44-.83,2.61-.16,2.61,1.5V192.14a5.76,5.76,0,0,1-2.61,4.52L69,325.5C67.55,326.33,66.38,325.65,66.38,324Z" style="fill:#263238"></path><path d="M59.51,163.33a9.25,9.25,0,0,0-1.29,4.29V345.8l-8.15-4.72V162.92a8.89,8.89,0,0,1,1.28-4.29Z" style="opacity:0.7000000000000001"></path><path d="M302.88,25.64c-.31-2.24-2.12-3.05-4.31-1.8L62.58,160.1a8.94,8.94,0,0,0-3.07,3.23l-8.16-4.71a9,9,0,0,1,3.08-3.23l236-136.24a9.32,9.32,0,0,1,8.43-.16A9.37,9.37,0,0,1,302.88,25.64Z" style="opacity:0.30000000000000004"></path></g></g><g id="freepik--Window--inject-16"><g id="freepik--window--inject-16"><path d="M84.61,199.75a4.65,4.65,0,0,1-2-3.67V179.17a4.81,4.81,0,0,1,2.17-3.75L306.87,47.17a4.06,4.06,0,0,1,6.22,3.59v16.9a4.74,4.74,0,0,1-2.16,3.75L88.8,199.67A4.62,4.62,0,0,1,84.61,199.75Z" style="fill:#2B003F"></path><path d="M313.07,50.41c-.15-1.12-1.06-1.53-2.14-.9L88.8,177.77a4.6,4.6,0,0,0-1.53,1.62L83.21,177a4.51,4.51,0,0,1,1.53-1.62L306.87,47.17a4,4,0,0,1,6.2,3.24Z" style="fill:#fff;opacity:0.4"></path><path d="M88.8,337.24a3.63,3.63,0,0,1-1.7.52,4.26,4.26,0,0,1-2.49-.44,4.62,4.62,0,0,1-2-3.67V204.82l4.07,2.35V336c0,1,.49,1.55,1.2,1.55A2.08,2.08,0,0,0,88.8,337.24Z" style="fill:#f0f0f0"></path><path d="M87.27,179.39a4.4,4.4,0,0,0-.63,2.13v25.65l-4.07-2.35V179.17c0-.09,0-.17,0-.26a4.18,4.18,0,0,1,.09-.53,4.83,4.83,0,0,1,.54-1.34Z" style="opacity:0.1"></path><path d="M313.09,50.76V62.33l-159.3,92c-1.19.69-2.16.13-2.16-1.25v-4.38c0-1.38-1-1.94-2.17-1.25L96.93,177.77a4.78,4.78,0,0,0-2.17,3.75v4.38a4.8,4.8,0,0,1-2.16,3.75l-6,3.44V181.52a4.8,4.8,0,0,1,2.16-3.75L310.93,49.51C312.12,48.82,313.09,49.38,313.09,50.76Z" style="fill:#2B003F"></path><path d="M313.09,205.23a4.79,4.79,0,0,1-2.16,3.76L88.8,337.24c-1.19.69-2.16.13-2.16-1.25V193.09l6-3.44c1.19-.69,3.13-11.19,4.33-11.88l51.65-29.83c1.2-.69,4,7.07,5.21,6.38l159.3-92v142.9Z" style="fill:#fafafa"></path><path d="M312.09,64.06V205.23a3.79,3.79,0,0,1-1.66,2.89L88.3,336.38a1,1,0,0,1-.46.16c-.2,0-.2-.52-.2-.55V193.66l5.46-3.15c.87-.5,1.41-2.18,2.62-6.51a32,32,0,0,1,1.79-5.41L148.7,149a23.36,23.36,0,0,1,1.63,2.6c1.39,2.45,2.17,3.73,3.3,3.73a1.28,1.28,0,0,0,.66-.18l157.8-91.12m-163,84.75h0M97.54,178.55h0M313.09,62.33l-159.3,92a.29.29,0,0,1-.16,0c-1.21,0-3.67-6.46-4.89-6.46a.32.32,0,0,0-.16,0L96.93,177.77c-1.2.69-3.14,11.19-4.33,11.88l-6,3.44V336c0,1,.49,1.55,1.2,1.55a1.94,1.94,0,0,0,1-.3L310.93,209a4.79,4.79,0,0,0,2.16-3.76V62.33Z" style="fill:#e0e0e0"></path><path d="M302.94,58c1.51-.87,2.73-.16,2.73,1.58a6,6,0,0,1-2.73,4.72c-1.5.86-2.72.16-2.72-1.58A6,6,0,0,1,302.94,58Z" style="fill:#fff"></path><path d="M293.13,63.67c1.51-.87,2.73-.17,2.73,1.57A6,6,0,0,1,293.13,70c-1.5.87-2.72.16-2.72-1.57A6,6,0,0,1,293.13,63.67Z" style="fill:#fff"></path><ellipse cx="283.32" cy="72.47" rx="3.85" ry="2.22" transform="translate(78.9 281.6) rotate(-60)" style="fill:#fff"></ellipse><path d="M313.09,62.33V76.41L86.64,207.17V193.09l4.45-2.58c1.19-.69,1.59-1.74,2.16-3.75l1.51-5.24c.48-1.82,1-3.06,2.17-3.75l51.65-29.83c1.2-.69,2.14-.76,3,.75l1.85,3.36c.68,1.17,1,1.86,2.21,1.17Z" style="fill:#e6e6e6"></path><polygon points="86.64 193.09 86.64 207.17 82.57 204.82 82.57 190.75 86.64 193.09" style="fill:#e0e0e0"></polygon><path d="M96.57,194.1l-3.4,2,1.3-2.49a.64.64,0,0,0,0-.61c-.1-.12-.28,0-.39.19l-1.84,3.54v0s0,.08-.05.13v0a.57.57,0,0,0,0,.18.38.38,0,0,0,0,.16s0,0,0,0a.56.56,0,0,0,.05.08h0l1.84,1.41a.15.15,0,0,0,.18,0,.52.52,0,0,0,.21-.26.55.55,0,0,0,0-.58l-1.3-1,3.4-2a.71.71,0,0,0,.28-.58C96.85,194.13,96.72,194,96.57,194.1Z" style="fill:#455a64;opacity:0.5"></path><path d="M99.41,192.46l3.4-2-1.3-1c-.11-.08-.12-.34,0-.58s.27-.34.38-.26l1.85,1.42h0a.13.13,0,0,1,0,.07l0,0a.61.61,0,0,1,0,.15,1.23,1.23,0,0,1,0,.19s0,0,0,0a.69.69,0,0,1,0,.13h0l-1.85,3.55a.48.48,0,0,1-.18.21.14.14,0,0,1-.2,0,.63.63,0,0,1,0-.61l1.3-2.49-3.4,2c-.15.09-.27,0-.27-.26A.73.73,0,0,1,99.41,192.46Z" style="fill:#455a64;opacity:0.5"></path><path d="M110.56,182.67c0-.2-.2-.17-.29.05l-.46,1.14c-.8-.09-1.76.69-2.41,2.06-.84,1.78-.84,3.89,0,4.7a1.2,1.2,0,0,0,1.53.09,4.17,4.17,0,0,0,1.52-1.85.58.58,0,0,0,0-.6c-.1-.1-.28,0-.38.23-.63,1.33-1.65,1.92-2.28,1.31s-.63-2.18,0-3.51c.44-.94,1.09-1.5,1.65-1.54l-.35.86c-.09.22,0,.43.13.34l1.39-.91a.42.42,0,0,0,.15-.38Z" style="fill:#455a64;opacity:0.5"></path><path d="M147.09,154.37l1.24-2.62a.79.79,0,0,0,0-.82c-.15-.14-.38,0-.53.31l-1.24,2.62-1.24-1.19c-.14-.14-.38,0-.53.3a.84.84,0,0,0,0,.82L146,155l-1.24,2.63a.82.82,0,0,0,0,.81.22.22,0,0,0,.27,0,.79.79,0,0,0,.26-.32l1.24-2.63,1.24,1.2a.21.21,0,0,0,.27,0,.73.73,0,0,0,.26-.32.79.79,0,0,0,0-.82Z" style="fill:#455a64;opacity:0.5"></path><path d="M115.07,185.9v-4.38a4.78,4.78,0,0,1,2.17-3.75L298.75,73c1.19-.69,2.16-.13,2.16,1.25v4.38a4.8,4.8,0,0,1-2.16,3.75L117.24,187.15C116,187.84,115.07,187.28,115.07,185.9Z" style="fill:#fafafa"></path><path d="M295.8,82.73a.53.53,0,0,1-.19,0,.59.59,0,0,1-.33-.65l.21-1.78-.83-.6a.58.58,0,0,1-.23-.49,1,1,0,0,1,.36-.75l1.27-1a.22.22,0,0,0,.05-.1l.57-1.87a.8.8,0,0,1,.64-.6.5.5,0,0,1,.5.3h0l.48,1,1.07-.41a.52.52,0,0,1,.58.13.81.81,0,0,1,0,.88l-.92,1.72s0,.1,0,.11l.21,1.56A1,1,0,0,1,299,81a.61.61,0,0,1-.5.2l-1-.13-1.12,1.43A.64.64,0,0,1,295.8,82.73Zm-.61-3.62.83.6a.64.64,0,0,1,.22.6l-.14,1.18.75-.95a.64.64,0,0,1,.57-.28l1,.13a.34.34,0,0,0,0-.12l-.22-1.56a1,1,0,0,1,.11-.56l.81-1.51-.83.32a.51.51,0,0,1-.66-.27l-.37-.79-.51,1.66a1,1,0,0,1-.31.47l-1.28,1A.23.23,0,0,0,295.19,79.11Zm3.2-2.74h0Z" style="fill:#e0e0e0"></path><g style="opacity:0.5"><path d="M303.46,72.48a.75.75,0,0,1-.37-1.4l6.09-3.52a.75.75,0,0,1,.75,1.3l-6.09,3.52A.75.75,0,0,1,303.46,72.48Z" style="fill:#455a64"></path><path d="M303.46,76a.75.75,0,0,1-.37-1.4l6.09-3.52a.75.75,0,0,1,.75,1.3l-6.09,3.52A.86.86,0,0,1,303.46,76Z" style="fill:#455a64"></path><path d="M303.46,79.52a.75.75,0,0,1-.37-1.4l6.09-3.52a.74.74,0,0,1,1,.27.75.75,0,0,1-.27,1l-6.09,3.51A.76.76,0,0,1,303.46,79.52Z" style="fill:#455a64"></path></g><polygon points="86.64 207.17 86.63 234.07 313.07 103.34 313.09 76.41 86.64 207.17" style="fill:#455a64"></polygon><path d="M153.23,179v6.28c0,1.28.91,1.81,2,1.17l78.59-45.41v-11l-78.59,45.41A4.46,4.46,0,0,0,153.23,179Z" style="fill:#fafafa"></path><path d="M244.47,124c1.12-.65,2-.13,2,1.16v6.28a4.48,4.48,0,0,1-2,3.51l-10.62,6.13v-11Z" style="fill:#2B003F"></path><path d="M243.69,132.61l-1.19-.37a6.61,6.61,0,0,0,.19-1.53,2.79,2.79,0,0,0-1.08-2.53,1.69,1.69,0,0,0-1.73.09c-1.32.76-2.36,2.93-2.36,4.92a2.77,2.77,0,0,0,1.08,2.53,1.41,1.41,0,0,0,.75.2,2,2,0,0,0,1-.28,5,5,0,0,0,1.92-2.56l1.18.37.13,0a.44.44,0,0,0,.14-.86Zm-3.81,2.27a.8.8,0,0,1-.84.08,2,2,0,0,1-.64-1.77,5.28,5.28,0,0,1,1.92-4.16,1.12,1.12,0,0,1,.54-.17.68.68,0,0,1,.31.08,2.05,2.05,0,0,1,.64,1.77C241.81,132.37,240.93,134.28,239.88,134.88Z" style="fill:#fafafa"></path></g></g><g id="freepik--Collection--inject-16"><g id="freepik--Image--inject-16"><g id="freepik--image--inject-16"><path d="M298.85,127l-89.44,51.65a4.62,4.62,0,0,0-2.09,3.63v85.21a4.6,4.6,0,0,0,2.09,3.62l1.33.77a4.6,4.6,0,0,0,4.18,0l89.44-51.65a4.62,4.62,0,0,0,2.1-3.62V131.41a4.61,4.61,0,0,0-2.09-3.62L303,127A4.63,4.63,0,0,0,298.85,127Z" style="fill:#e0e0e0"></path><path d="M306.37,130.79c-.26-.87-1.06-1.14-2-.58l-89.43,51.65a4.13,4.13,0,0,0-1.48,1.56l-5.51-3.18a4.21,4.21,0,0,1,1.47-1.57L298.86,127a4.66,4.66,0,0,1,4.18,0l1.32.77A4.62,4.62,0,0,1,306.37,130.79Z" style="fill:#fff"></path><path d="M304.36,130.2l-89.44,51.66a4.61,4.61,0,0,0-2.09,3.62v85.21c0,1.34.94,1.88,2.09,1.21l89.44-51.65a4.62,4.62,0,0,0,2.1-3.62V131.41C306.45,130.08,305.52,129.54,304.36,130.2Z" style="fill:#f5f5f5"></path><polygon points="218.34 186.25 300.94 138.54 300.94 214.9 218.34 262.6 218.34 186.25" style="fill:#2B003F"></polygon><polygon points="218.34 186.25 300.94 138.54 300.94 214.9 218.34 262.6 218.34 186.25" style="fill:#fff;opacity:0.85"></polygon></g><path d="M292.17,216.76c-6.7-8.21-24.07-6.43-39.61-7.18-15-.73-20.24-7.8-24-15.18C228.6,194.4,264.6,181,292.17,216.76Z" style="fill:#2B003F"></path><path d="M292.17,216.76c-6.7-8.21-24.07-6.43-39.61-7.18-15-.73-20.24-7.8-24-15.18C228.6,194.4,264.6,181,292.17,216.76Z" style="opacity:0.2"></path><path d="M292.23,216.78l0,0c-27.56-35.77-63.56-22.36-63.56-22.36-.16-.3-.3-.59-.45-.9a8.93,8.93,0,0,1,.47-2c3.1-8.79,19.63-15.15,37-5.51C284.38,196.32,292.23,216.78,292.23,216.78Z" style="fill:#2B003F"></path><path d="M292.23,216.78l0,0c-27.56-35.77-63.56-22.36-63.56-22.36-.16-.3-.3-.59-.45-.9a8.93,8.93,0,0,1,.47-2c3.1-8.79,19.63-15.15,37-5.51C284.38,196.32,292.23,216.78,292.23,216.78Z" style="opacity:0.4"></path><path d="M263.55,209.85c-1.19-2.44-5.85-12.24-6.08-16.51l-1.06-.23a46,46,0,0,0,3.65,11.66,41.62,41.62,0,0,1-4.9-11.91c-.78-.14-1.55-.26-2.32-.37a77.52,77.52,0,0,0,3.28,11.28s-2.24-3.44-4.06-11.39l-.82-.1c.7,2.86,3.1,11.92,6.75,17.47l2.14,0a17.75,17.75,0,0,1-2.28-4.68l3.06,4.7Z" style="fill:#2B003F"></path><path d="M274.73,200.55a37.39,37.39,0,0,1,3.78,6.9,71.79,71.79,0,0,0-4.52-7.36l-.71-.43c1.46,2.34,4.19,6.92,5.06,9.72a102.9,102.9,0,0,0-6.42-10.5c-.89-.49-1.77-.95-2.65-1.38a43.33,43.33,0,0,1,3.87,9.39,80.87,80.87,0,0,0-4.78-9.82c-.63-.29-1.27-.58-1.9-.84A51.14,51.14,0,0,1,272,210.1c1.19.07,2.37.15,3.51.26a45.27,45.27,0,0,0-1.42-6s1.74,3.67,2.61,6.13c1.6.17,3.13.4,4.59.7a35.69,35.69,0,0,0-4.23-9.08C276.29,201.56,275.51,201,274.73,200.55Z" style="fill:#2B003F"></path><path d="M249.75,209.35c-1.8-2.44-6.84-9.65-9.57-17.22-1.86.16-3.54.39-5,.64a39.07,39.07,0,0,0,7.74,15.13c.78.26,1.6.49,2.47.7a30.33,30.33,0,0,1-5.22-9,99,99,0,0,0,7.18,9.37C248.11,209.15,248.92,209.26,249.75,209.35Z" style="fill:#2B003F"></path><path d="M242.86,192c-.74,0-1.47.07-2.17.12.68,1.42,5.31,10.94,10,17.36.57.05,1.15.09,1.75.12C250.45,206.92,243.93,197.89,242.86,192Z" style="fill:#2B003F"></path><g style="opacity:0.2"><path d="M263.55,209.85c-1.19-2.44-5.85-12.24-6.08-16.51l-1.06-.23a46,46,0,0,0,3.65,11.66,41.62,41.62,0,0,1-4.9-11.91c-.78-.14-1.55-.26-2.32-.37a77.52,77.52,0,0,0,3.28,11.28s-2.24-3.44-4.06-11.39l-.82-.1c.7,2.86,3.1,11.92,6.75,17.47l2.14,0a17.75,17.75,0,0,1-2.28-4.68l3.06,4.7Z" style="fill:#fff"></path><path d="M274.73,200.55a37.39,37.39,0,0,1,3.78,6.9,71.79,71.79,0,0,0-4.52-7.36l-.71-.43c1.46,2.34,4.19,6.92,5.06,9.72a102.9,102.9,0,0,0-6.42-10.5c-.89-.49-1.77-.95-2.65-1.38a43.33,43.33,0,0,1,3.87,9.39,80.87,80.87,0,0,0-4.78-9.82c-.63-.29-1.27-.58-1.9-.84A51.14,51.14,0,0,1,272,210.1c1.19.07,2.37.15,3.51.26a45.27,45.27,0,0,0-1.42-6s1.74,3.67,2.61,6.13c1.6.17,3.13.4,4.59.7a35.69,35.69,0,0,0-4.23-9.08C276.29,201.56,275.51,201,274.73,200.55Z" style="fill:#fff"></path><path d="M249.75,209.35c-1.8-2.44-6.84-9.65-9.57-17.22-1.86.16-3.54.39-5,.64a39.07,39.07,0,0,0,7.74,15.13c.78.26,1.6.49,2.47.7a30.33,30.33,0,0,1-5.22-9,99,99,0,0,0,7.18,9.37C248.11,209.15,248.92,209.26,249.75,209.35Z" style="fill:#fff"></path><path d="M242.86,192c-.74,0-1.47.07-2.17.12.68,1.42,5.31,10.94,10,17.36.57.05,1.15.09,1.75.12C250.45,206.92,243.93,197.89,242.86,192Z" style="fill:#fff"></path></g><path d="M266.6,186.5c-1.6,1-5.46,3.38-7,5.18l1.72.92a15.91,15.91,0,0,1,9.09-2.81,15.09,15.09,0,0,0-7.59,3l1.89,1.67a15.17,15.17,0,0,1,8.84-3.1c-1.28-1.06-2.64-2.08-4.06-3a12.62,12.62,0,0,0-4.53,1.59,7,7,0,0,1,3.47-2.29C267.8,187.22,267.21,186.85,266.6,186.5Z" style="fill:#2B003F"></path><path d="M247.84,181.16a28.24,28.24,0,0,0-4.49.37c-.73,1.69-2.55,6.07-2.64,8l1.1.7a15,15,0,0,1,2.35-6.59s-1.69,4.4-1.5,6.37l4.77,1.2,1.79-.67s4.09-5.54,9.24-7.69c-.86-.27-1.71-.52-2.55-.72a11.85,11.85,0,0,0-5.29,4.15s.39-2.08,4.06-4.43c-.94-.19-1.87-.34-2.78-.45-1.36,1.72-4.8,6.18-5.22,8.12l-1.29.24a35.87,35.87,0,0,1,5.34-8.47l-.65-.06a39.17,39.17,0,0,0-5.36,8.23h-1.11A46.94,46.94,0,0,1,247.84,181.16Z" style="fill:#2B003F"></path><path d="M284.26,202.82c-1.35-.24-4-.68-6.13-.86l6.7,5.51a14.93,14.93,0,0,1,4.48,3.28c-.8-1.45-1.78-3.11-2.93-4.87a9.77,9.77,0,0,0-3-1.09l2.3,0C285.21,204.16,284.75,203.49,284.26,202.82Z" style="fill:#2B003F"></path><path d="M292.2,216.74c-27.56-35.77-63.56-22.36-63.56-22.36l-1.81.44-.91-2.31,2.74-1a56,56,0,0,1,36.91,2.4A62.43,62.43,0,0,1,292.2,216.74Z" style="fill:#2B003F"></path><path d="M292.2,216.74c-27.56-35.77-63.56-22.36-63.56-22.36l-1.81.44-.91-2.31,2.74-1a56,56,0,0,1,36.91,2.4A62.43,62.43,0,0,1,292.2,216.74Z" style="fill:#fff;opacity:0.6000000000000001"></path></g><g id="freepik--image--inject-16"><g id="freepik--image--inject-16"><path d="M190.35,189.48l-89.44,51.65a4.64,4.64,0,0,0-2.09,3.62V330a4.63,4.63,0,0,0,2.09,3.62l1.33.77a4.62,4.62,0,0,0,4.19,0l89.44-51.65a4.64,4.64,0,0,0,2.09-3.62V193.87a4.64,4.64,0,0,0-2.09-3.62l-1.33-.77A4.62,4.62,0,0,0,190.35,189.48Z" style="fill:#e0e0e0"></path><path d="M197.87,193.25c-.25-.87-1.06-1.15-2-.58l-89.43,51.65a4.21,4.21,0,0,0-1.48,1.56l-5.51-3.19a4.18,4.18,0,0,1,1.47-1.56l89.45-51.65a4.66,4.66,0,0,1,4.18,0l1.32.77A4.59,4.59,0,0,1,197.87,193.25Z" style="fill:#fff"></path><path d="M195.87,192.66l-89.45,51.66a4.61,4.61,0,0,0-2.09,3.62v85.21c0,1.34.94,1.88,2.1,1.21l89.44-51.65a4.64,4.64,0,0,0,2.09-3.62V193.87C198,192.54,197,192,195.87,192.66Z" style="fill:#f5f5f5"></path><polygon points="109.84 248.7 192.44 201 192.45 277.36 109.84 325.06 109.84 248.7" style="fill:#2B003F"></polygon><polygon points="109.84 248.7 192.44 201 192.45 277.36 109.84 325.06 109.84 248.7" style="fill:#fff;opacity:0.85"></polygon></g><path d="M127.63,271.2c-.06,1.28-.08,2.6-.09,3.9,0,1.59,0,3.19.1,4.77,0,.83.07,1.64.13,2.46l0,.64c.12,2.09.27,4.17.55,6.23.14,1.05.31,2.12.53,3.16a32.48,32.48,0,0,0,1.38,4.79c.85,2.24,1.75,3.22,2.73,3.41,1.22.29,2.54-.67,4-1.79a8.61,8.61,0,0,1,3.18-1.44c.76-.2,1.53-.33,2.32-.47,1.13-.17,2.28-.32,3.37-.54a14,14,0,0,0,2.48-.72,6.7,6.7,0,0,0,2.75-2,1,1,0,0,0,.14-.22c.76-1.15.85-2.85,1.83-3.75l0,0c1-.93,2.31-.82,3.62-.79a5.8,5.8,0,0,0,2.27-.24,3.35,3.35,0,0,0,1.32-.84,7.06,7.06,0,0,0,1-1.27c1.41-2.32,1.93-5.5,3.72-7.3a1.22,1.22,0,0,1,.24-.27,14,14,0,0,1,2.25-1.56,12.48,12.48,0,0,0,2.62-2,6.67,6.67,0,0,0,1.13-1.56,9.1,9.1,0,0,0,1-3.2,39,39,0,0,1,.87-6c.64-2.05,2.21-3.22,3.44-4.85a10.35,10.35,0,0,0-.78-13.43,8,8,0,0,0-2.21-1.67,13.12,13.12,0,0,0-6.11-.86l-4.6.09c-3.79.07-3.9-4.74-6.32-6.72a7.65,7.65,0,0,0-2.73-1.34c-7.24-2.13-14.74,2.56-18.78,8.34a25.92,25.92,0,0,0-2.29,3.77,30.48,30.48,0,0,0-1.49,3.39,47,47,0,0,0-2.23,7.82c-.41,2-.71,4.05-.93,6.15C127.82,267.24,127.69,269.21,127.63,271.2Z" style="fill:#2B003F"></path><path d="M135.08,266.53c1.57-.71,4.32-2.94,6.17-2-2.27,2.59-6,3.42-8.64,5.41a21.6,21.6,0,0,0-5.07,5.15c0,1.59,0,3.19.1,4.77,1.11-1.67,2.68-4.79,4.41-3.38-1.29,2.28-2.85,4.27-4.24,6.48l.55,6.23c1-2.31,1.8-4.84,3.27-6.78,1.29-1.67,4.09-4.87,6.31-4.29a25.76,25.76,0,0,1-3.13,7c-1.32,1.78-3,3-4.37,4.81a24.48,24.48,0,0,0-1.55,2.44,32.48,32.48,0,0,0,1.38,4.79c1.94,5.12,4.14,3.61,6.72,1.62a8.61,8.61,0,0,1,3.18-1.44,65.33,65.33,0,0,0-.47-6.9c-.28-2.37-1.36-4.75-1.54-7-.21-2.6,1.23-4.92,2.1-6.83a32.3,32.3,0,0,0,1,6.89,38.81,38.81,0,0,1,1.26,13.38c1.13-.17,2.28-.32,3.37-.54.09-.7.15-1.34.2-1.84.28-2.53-1.13-10.23.5-11.64,1.57,1,1.44,4.93,1.62,6.69a40.28,40.28,0,0,1,.16,6.07,6.7,6.7,0,0,0,2.75-2,1,1,0,0,0,.14-.22c-.16-6-2.7-14.25-3.58-17.84-2.18-8.89-.73-15.09,4.65-19.8-1.4,5.17-2.46,10.64-1.37,16.75.77,4.35,1.93,8.58,2.22,12.93a39.33,39.33,0,0,1-.05,4.17c1-.93,2.31-.82,3.62-.79,0-.2.05-.42.07-.65a46.45,46.45,0,0,0,0-7.64c-.09-1.52-.93-4.06,0-5,1.86,3.42,2.27,8.58,2.19,13a3.35,3.35,0,0,0,1.32-.84,7.06,7.06,0,0,0,1-1.27c0-1.21-.06-2.45-.15-3.53-.5-5.79-2.6-11.12-4-16.78-1.76-7-1-12.36,2.14-17.27-.56,5.37.44,10.31,2,15.77.92,3.18,2.09,6.33,2.9,9.56a35.23,35.23,0,0,1,.82,4.95,1.22,1.22,0,0,1,.24-.27,14,14,0,0,1,2.25-1.56v-.07c.22-3.4-1.7-8.34-.6-11.23,2,.78,2.87,5.57,3.21,9.35a6.67,6.67,0,0,0,1.13-1.56,9.1,9.1,0,0,0,1-3.2,28.85,28.85,0,0,0-4.06-10.25c-2.45-4.06-7.4-10.94-5.59-15.78a40.13,40.13,0,0,1,2.36,3.75c1.41,2.06,3.07,3.66,4.58,5.56a36.89,36.89,0,0,1,4.43,7.53c.13.27.26.57.39.88a7.92,7.92,0,0,0,2-4c.23-2.53-1.24-5.39-2.67-7.42a11.62,11.62,0,0,0-6.49-4.57c-4.52-1.47-8.46-3.89-12.8-6.56-4.63-2.85-8.8-3.78-12.77-1.74a17.64,17.64,0,0,1,5.19,1.83,56,56,0,0,0,10.32,3.74c-1.38,2.06-4.41,1.56-6.6,1.19a52.73,52.73,0,0,0-8.74-1.09,41.51,41.51,0,0,0-6.73.47,25.92,25.92,0,0,0-2.29,3.77c2.82-.59,6.61-.42,8.91,1.3-.6,2.05-7,1.6-8.64,1.8a14,14,0,0,0-1.76.29,47,47,0,0,0-2.23,7.82,29.61,29.61,0,0,1,7.63-4.69c2.61-1,5.46-.83,8.32-.71,1.31,0,2.63.11,4,.1a9.78,9.78,0,0,0,4.32-1.21,23.27,23.27,0,0,1-2.93,3.23,12.67,12.67,0,0,1-3.24,2,43.38,43.38,0,0,1-7.39,2.2c-.94.22-1.88.48-2.79.78a34.73,34.73,0,0,0-7.23,3.57c-.37.24-1,.5-1.57.85-.22,1.92-.35,3.89-.41,5.88,1.36-.84,2.42-2.27,3.85-3.07C132.61,267.51,133.92,267.08,135.08,266.53Z" style="fill:#2B003F"></path><path d="M135.08,266.53c1.57-.71,4.32-2.94,6.17-2-2.27,2.59-6,3.42-8.64,5.41a21.6,21.6,0,0,0-5.07,5.15c0,1.59,0,3.19.1,4.77,1.11-1.67,2.68-4.79,4.41-3.38-1.29,2.28-2.85,4.27-4.24,6.48l.55,6.23c1-2.31,1.8-4.84,3.27-6.78,1.29-1.67,4.09-4.87,6.31-4.29a25.76,25.76,0,0,1-3.13,7c-1.32,1.78-3,3-4.37,4.81a24.48,24.48,0,0,0-1.55,2.44,32.48,32.48,0,0,0,1.38,4.79c1.94,5.12,4.14,3.61,6.72,1.62a8.61,8.61,0,0,1,3.18-1.44,65.33,65.33,0,0,0-.47-6.9c-.28-2.37-1.36-4.75-1.54-7-.21-2.6,1.23-4.92,2.1-6.83a32.3,32.3,0,0,0,1,6.89,38.81,38.81,0,0,1,1.26,13.38c1.13-.17,2.28-.32,3.37-.54.09-.7.15-1.34.2-1.84.28-2.53-1.13-10.23.5-11.64,1.57,1,1.44,4.93,1.62,6.69a40.28,40.28,0,0,1,.16,6.07,6.7,6.7,0,0,0,2.75-2,1,1,0,0,0,.14-.22c-.16-6-2.7-14.25-3.58-17.84-2.18-8.89-.73-15.09,4.65-19.8-1.4,5.17-2.46,10.64-1.37,16.75.77,4.35,1.93,8.58,2.22,12.93a39.33,39.33,0,0,1-.05,4.17c1-.93,2.31-.82,3.62-.79,0-.2.05-.42.07-.65a46.45,46.45,0,0,0,0-7.64c-.09-1.52-.93-4.06,0-5,1.86,3.42,2.27,8.58,2.19,13a3.35,3.35,0,0,0,1.32-.84,7.06,7.06,0,0,0,1-1.27c0-1.21-.06-2.45-.15-3.53-.5-5.79-2.6-11.12-4-16.78-1.76-7-1-12.36,2.14-17.27-.56,5.37.44,10.31,2,15.77.92,3.18,2.09,6.33,2.9,9.56a35.23,35.23,0,0,1,.82,4.95,1.22,1.22,0,0,1,.24-.27,14,14,0,0,1,2.25-1.56v-.07c.22-3.4-1.7-8.34-.6-11.23,2,.78,2.87,5.57,3.21,9.35a6.67,6.67,0,0,0,1.13-1.56,9.1,9.1,0,0,0,1-3.2,28.85,28.85,0,0,0-4.06-10.25c-2.45-4.06-7.4-10.94-5.59-15.78a40.13,40.13,0,0,1,2.36,3.75c1.41,2.06,3.07,3.66,4.58,5.56a36.89,36.89,0,0,1,4.43,7.53c.13.27.26.57.39.88a7.92,7.92,0,0,0,2-4c.23-2.53-1.24-5.39-2.67-7.42a11.62,11.62,0,0,0-6.49-4.57c-4.52-1.47-8.46-3.89-12.8-6.56-4.63-2.85-8.8-3.78-12.77-1.74a17.64,17.64,0,0,1,5.19,1.83,56,56,0,0,0,10.32,3.74c-1.38,2.06-4.41,1.56-6.6,1.19a52.73,52.73,0,0,0-8.74-1.09,41.51,41.51,0,0,0-6.73.47,25.92,25.92,0,0,0-2.29,3.77c2.82-.59,6.61-.42,8.91,1.3-.6,2.05-7,1.6-8.64,1.8a14,14,0,0,0-1.76.29,47,47,0,0,0-2.23,7.82,29.61,29.61,0,0,1,7.63-4.69c2.61-1,5.46-.83,8.32-.71,1.31,0,2.63.11,4,.1a9.78,9.78,0,0,0,4.32-1.21,23.27,23.27,0,0,1-2.93,3.23,12.67,12.67,0,0,1-3.24,2,43.38,43.38,0,0,1-7.39,2.2c-.94.22-1.88.48-2.79.78a34.73,34.73,0,0,0-7.23,3.57c-.37.24-1,.5-1.57.85-.22,1.92-.35,3.89-.41,5.88,1.36-.84,2.42-2.27,3.85-3.07C132.61,267.51,133.92,267.08,135.08,266.53Z" style="opacity:0.30000000000000004"></path><path d="M133,300.74v0a0,0,0,0,1,0,0c.29-1.15,10.27-38.08,28.58-56.56-.85-.42-1.7-.88-2.56-1.38C159,242.8,135.92,267.42,133,300.74Z" style="fill:#2B003F"></path><path d="M133,300.74v0a0,0,0,0,1,0,0c.29-1.15,10.27-38.08,28.58-56.56-.85-.42-1.7-.88-2.56-1.38C159,242.8,135.92,267.42,133,300.74Z" style="fill:#fff;opacity:0.7000000000000001"></path></g><g id="freepik--image--inject-16"><path d="M214.72,236.3,125.28,288a4.61,4.61,0,0,0-2.09,3.62v85.21a4.61,4.61,0,0,0,2.09,3.62l1.33.77a4.62,4.62,0,0,0,4.19,0l89.44-51.65a4.64,4.64,0,0,0,2.09-3.62V240.69a4.64,4.64,0,0,0-2.09-3.62l-1.33-.77A4.68,4.68,0,0,0,214.72,236.3Z" style="fill:#ebebeb"></path><path d="M222.24,240.07c-.25-.87-1.06-1.14-2-.58L130.8,291.14a4.21,4.21,0,0,0-1.48,1.56l-5.51-3.18a4.21,4.21,0,0,1,1.47-1.57l89.45-51.65a4.66,4.66,0,0,1,4.18,0l1.32.78A4.54,4.54,0,0,1,222.24,240.07Z" style="fill:#fff"></path><path d="M220.24,239.48,130.8,291.14a4.61,4.61,0,0,0-2.1,3.62V380c0,1.34.94,1.88,2.1,1.21l89.44-51.65a4.64,4.64,0,0,0,2.09-3.62V240.69C222.33,239.36,221.39,238.82,220.24,239.48Z" style="fill:#fafafa"></path><polygon points="134.22 295.52 216.81 247.82 216.82 324.18 134.22 371.88 134.22 295.52" style="fill:#2B003F"></polygon><polygon points="134.22 295.52 216.81 247.82 216.82 324.18 134.22 371.88 134.22 295.52" style="fill:#fff;opacity:0.85"></polygon><path d="M177.4,315.55a28.77,28.77,0,0,0-12.54-7,38,38,0,0,0-15.66-.09S158.54,319.72,177.4,315.55Z" style="fill:#2B003F"></path><path d="M178.09,314.9a63.74,63.74,0,0,0-17.71,5.76,113.21,113.21,0,0,0-18.69,11.78S157.27,331.36,178.09,314.9Z" style="fill:#2B003F"></path><path d="M177.77,315.34A175.82,175.82,0,0,0,161.19,331a200.53,200.53,0,0,0-15,18.32A171.49,171.49,0,0,0,177.77,315.34Z" style="fill:#2B003F"></path><path d="M177.43,315.5a186.22,186.22,0,0,0-11.61,18.59,136,136,0,0,0-8.22,18.25S170.62,335.05,177.43,315.5Z" style="fill:#2B003F"></path><path d="M177.47,315.46a38.77,38.77,0,0,1-7.39-14.28,69,69,0,0,1-2.2-19S178.28,292,177.47,315.46Z" style="fill:#2B003F"></path><path d="M177,316.38a112.33,112.33,0,0,1,2.25-22.3,169.12,169.12,0,0,1,7-24.3S187.51,288.85,177,316.38Z" style="fill:#2B003F"></path><path d="M177.35,315.94a221.2,221.2,0,0,1,10.36-22.27,215,215,0,0,1,12.76-20.73A204.41,204.41,0,0,1,177.35,315.94Z" style="fill:#2B003F"></path><path d="M177.43,315.5a175.07,175.07,0,0,1,13.44-16.63,105.92,105.92,0,0,1,13.63-12.46S192.3,304.58,177.43,315.5Z" style="fill:#2B003F"></path><g style="opacity:0.6000000000000001"><path d="M177.4,315.55a28.77,28.77,0,0,0-12.54-7,38,38,0,0,0-15.66-.09S158.54,319.72,177.4,315.55Z" style="fill:#fff"></path><path d="M178.09,314.9a63.74,63.74,0,0,0-17.71,5.76,113.21,113.21,0,0,0-18.69,11.78S157.27,331.36,178.09,314.9Z" style="fill:#fff"></path><path d="M177.77,315.34A175.82,175.82,0,0,0,161.19,331a200.53,200.53,0,0,0-15,18.32A171.49,171.49,0,0,0,177.77,315.34Z" style="fill:#fff"></path><path d="M177.43,315.5a186.22,186.22,0,0,0-11.61,18.59,136,136,0,0,0-8.22,18.25S170.62,335.05,177.43,315.5Z" style="fill:#fff"></path><path d="M177.47,315.46a38.77,38.77,0,0,1-7.39-14.28,69,69,0,0,1-2.2-19S178.28,292,177.47,315.46Z" style="fill:#fff"></path><path d="M177,316.38a112.33,112.33,0,0,1,2.25-22.3,169.12,169.12,0,0,1,7-24.3S187.51,288.85,177,316.38Z" style="fill:#fff"></path><path d="M177.35,315.94a221.2,221.2,0,0,1,10.36-22.27,215,215,0,0,1,12.76-20.73A204.41,204.41,0,0,1,177.35,315.94Z" style="fill:#fff"></path><path d="M177.43,315.5a175.07,175.07,0,0,1,13.44-16.63,105.92,105.92,0,0,1,13.63-12.46S192.3,304.58,177.43,315.5Z" style="fill:#fff"></path></g><path d="M149.2,308.42l28.2,7.13a28.77,28.77,0,0,0-12.54-7A38,38,0,0,0,149.2,308.42Z" style="fill:#2B003F"></path><path d="M141.69,332.44l36.4-17.54a63.74,63.74,0,0,0-17.71,5.76A113.21,113.21,0,0,0,141.69,332.44Z" style="fill:#2B003F"></path><path d="M146.17,349.27l31.6-33.93A175.82,175.82,0,0,0,161.19,331,200.53,200.53,0,0,0,146.17,349.27Z" style="fill:#2B003F"></path><path d="M157.6,352.34l19.83-36.84a186.22,186.22,0,0,0-11.61,18.59A136,136,0,0,0,157.6,352.34Z" style="fill:#2B003F"></path><path d="M167.88,282.16l9.59,33.3a38.77,38.77,0,0,1-7.39-14.28A69,69,0,0,1,167.88,282.16Z" style="fill:#2B003F"></path><path d="M186.27,269.78,177,316.38a112.33,112.33,0,0,1,2.25-22.3A169.12,169.12,0,0,1,186.27,269.78Z" style="fill:#2B003F"></path><path d="M200.47,272.94l-23.12,43a221.2,221.2,0,0,1,10.36-22.27A215,215,0,0,1,200.47,272.94Z" style="fill:#2B003F"></path><path d="M204.5,286.41,177.43,315.5a175.07,175.07,0,0,1,13.44-16.63A105.92,105.92,0,0,1,204.5,286.41Z" style="fill:#2B003F"></path><g style="opacity:0.30000000000000004"><path d="M149.2,308.42l28.2,7.13a28.77,28.77,0,0,0-12.54-7A38,38,0,0,0,149.2,308.42Z" style="fill:#fff"></path><path d="M141.69,332.44l36.4-17.54a63.74,63.74,0,0,0-17.71,5.76A113.21,113.21,0,0,0,141.69,332.44Z" style="fill:#fff"></path><path d="M146.17,349.27l31.6-33.93A175.82,175.82,0,0,0,161.19,331,200.53,200.53,0,0,0,146.17,349.27Z" style="fill:#fff"></path><path d="M157.6,352.34l19.83-36.84a186.22,186.22,0,0,0-11.61,18.59A136,136,0,0,0,157.6,352.34Z" style="fill:#fff"></path><path d="M167.88,282.16l9.59,33.3a38.77,38.77,0,0,1-7.39-14.28A69,69,0,0,1,167.88,282.16Z" style="fill:#fff"></path><path d="M186.27,269.78,177,316.38a112.33,112.33,0,0,1,2.25-22.3A169.12,169.12,0,0,1,186.27,269.78Z" style="fill:#fff"></path><path d="M200.47,272.94l-23.12,43a221.2,221.2,0,0,1,10.36-22.27A215,215,0,0,1,200.47,272.94Z" style="fill:#fff"></path><path d="M204.5,286.41,177.43,315.5a175.07,175.07,0,0,1,13.44-16.63A105.92,105.92,0,0,1,204.5,286.41Z" style="fill:#fff"></path></g><path d="M177.55,315.63s-2.68-9-8.51-15.28a27.42,27.42,0,0,0-13-7.73S160.74,311.89,177.55,315.63Z" style="fill:#2B003F"></path><path d="M177.55,315.63a38.35,38.35,0,0,0-15.87-.68,68.59,68.59,0,0,0-18,5.9S156.81,326.07,177.55,315.63Z" style="fill:#2B003F"></path><path d="M177.52,315.68a99.92,99.92,0,0,0-17.72,11,152.77,152.77,0,0,0-17.41,16S158.87,336,177.52,315.68Z" style="fill:#2B003F"></path><path d="M177.5,315.62a189.48,189.48,0,0,0-14.35,17.75,176.25,176.25,0,0,0-11.73,19A172.59,172.59,0,0,0,177.5,315.62Z" style="fill:#2B003F"></path><path d="M177.52,315.68a151.54,151.54,0,0,0-8.09,15.79,95.53,95.53,0,0,0-5.06,14.66S173.91,330.85,177.52,315.68Z" style="fill:#2B003F"></path><path d="M177.55,315.63a69,69,0,0,1-2.7-19.19,118.58,118.58,0,0,1,2.33-22.65S183.17,289,177.55,315.63Z" style="fill:#2B003F"></path><path d="M177.59,315.58a152.57,152.57,0,0,1,6.5-23,192,192,0,0,1,10.54-23.33S191.48,290.16,177.59,315.58Z" style="fill:#2B003F"></path><path d="M177.54,315.57a206.06,206.06,0,0,1,12.39-19.85,161,161,0,0,1,13.77-16.83S193.29,299.21,177.54,315.57Z" style="fill:#2B003F"></path><path d="M177.59,315.58a128.19,128.19,0,0,1,11.65-12,67.17,67.17,0,0,1,11.16-8.13S189.35,309.14,177.59,315.58Z" style="fill:#2B003F"></path><path d="M181.79,312.89s-2.89,1.76-2.36,4.75c-2.49-.24-3.52,3.51-3.52,3.51l1.49-5.6Z" style="fill:#2B003F"></path><g style="opacity:0.2"><path d="M177.55,315.63s-2.68-9-8.51-15.28a27.42,27.42,0,0,0-13-7.73S160.74,311.89,177.55,315.63Z"></path><path d="M177.55,315.63a38.35,38.35,0,0,0-15.87-.68,68.59,68.59,0,0,0-18,5.9S156.81,326.07,177.55,315.63Z"></path><path d="M177.52,315.68a99.92,99.92,0,0,0-17.72,11,152.77,152.77,0,0,0-17.41,16S158.87,336,177.52,315.68Z"></path><path d="M177.5,315.62a189.48,189.48,0,0,0-14.35,17.75,176.25,176.25,0,0,0-11.73,19A172.59,172.59,0,0,0,177.5,315.62Z"></path><path d="M177.52,315.68a151.54,151.54,0,0,0-8.09,15.79,95.53,95.53,0,0,0-5.06,14.66S173.91,330.85,177.52,315.68Z"></path><path d="M177.55,315.63a69,69,0,0,1-2.7-19.19,118.58,118.58,0,0,1,2.33-22.65S183.17,289,177.55,315.63Z"></path><path d="M177.59,315.58a152.57,152.57,0,0,1,6.5-23,192,192,0,0,1,10.54-23.33S191.48,290.16,177.59,315.58Z"></path><path d="M177.54,315.57a206.06,206.06,0,0,1,12.39-19.85,161,161,0,0,1,13.77-16.83S193.29,299.21,177.54,315.57Z"></path><path d="M177.59,315.58a128.19,128.19,0,0,1,11.65-12,67.17,67.17,0,0,1,11.16-8.13S189.35,309.14,177.59,315.58Z"></path><path d="M181.79,312.89s-2.89,1.76-2.36,4.75c-2.49-.24-3.52,3.51-3.52,3.51l1.49-5.6Z"></path></g><path d="M156,292.62l21.51,23s-2.68-9-8.51-15.28A27.42,27.42,0,0,0,156,292.62Z" style="fill:#2B003F"></path><path d="M143.7,320.85l33.85-5.22a38.35,38.35,0,0,0-15.87-.68A68.59,68.59,0,0,0,143.7,320.85Z" style="fill:#2B003F"></path><path d="M142.39,342.68l35.13-27a99.92,99.92,0,0,0-17.72,11A152.77,152.77,0,0,0,142.39,342.68Z" style="fill:#2B003F"></path><path d="M151.42,352.38l26.08-36.76a189.48,189.48,0,0,0-14.35,17.75A176.25,176.25,0,0,0,151.42,352.38Z" style="fill:#2B003F"></path><path d="M164.37,346.13l13.15-30.45a151.54,151.54,0,0,0-8.09,15.79A95.53,95.53,0,0,0,164.37,346.13Z" style="fill:#2B003F"></path><path d="M177.18,273.79l.37,41.84a69,69,0,0,1-2.7-19.19A118.58,118.58,0,0,1,177.18,273.79Z" style="fill:#2B003F"></path><path d="M194.63,269.23l-17,46.35a152.57,152.57,0,0,1,6.5-23A192,192,0,0,1,194.63,269.23Z" style="fill:#2B003F"></path><path d="M203.7,278.89l-26.16,36.68a206.06,206.06,0,0,1,12.39-19.85A161,161,0,0,1,203.7,278.89Z" style="fill:#2B003F"></path><path d="M200.4,295.48l-22.81,20.1a128.19,128.19,0,0,1,11.65-12A67.17,67.17,0,0,1,200.4,295.48Z" style="fill:#2B003F"></path><g style="opacity:0.35000000000000003"><path d="M156,292.62l21.51,23s-2.68-9-8.51-15.28A27.42,27.42,0,0,0,156,292.62Z"></path><path d="M143.7,320.85l33.85-5.22a38.35,38.35,0,0,0-15.87-.68A68.59,68.59,0,0,0,143.7,320.85Z"></path><path d="M142.39,342.68l35.13-27a99.92,99.92,0,0,0-17.72,11A152.77,152.77,0,0,0,142.39,342.68Z"></path><path d="M151.42,352.38l26.08-36.76a189.48,189.48,0,0,0-14.35,17.75A176.25,176.25,0,0,0,151.42,352.38Z"></path><path d="M164.37,346.13l13.15-30.45a151.54,151.54,0,0,0-8.09,15.79A95.53,95.53,0,0,0,164.37,346.13Z"></path><path d="M177.18,273.79l.37,41.84a69,69,0,0,1-2.7-19.19A118.58,118.58,0,0,1,177.18,273.79Z"></path><path d="M194.63,269.23l-17,46.35a152.57,152.57,0,0,1,6.5-23A192,192,0,0,1,194.63,269.23Z"></path><path d="M203.7,278.89l-26.16,36.68a206.06,206.06,0,0,1,12.39-19.85A161,161,0,0,1,203.7,278.89Z"></path><path d="M200.4,295.48l-22.81,20.1a128.19,128.19,0,0,1,11.65-12A67.17,67.17,0,0,1,200.4,295.48Z"></path></g><path d="M177.28,315.71c1.17,1.64,2.42,3.16,3.63,4.74s2.48,3.05,3.75,4.54,2.56,2.95,3.84,4.44l1.95,2.16,1,1.08.49.54.25.27c.1.06.31,0,.88-.63l.45-.63c.41-.77.45-1,.39-1.16l-.25-.26-.5-.52-1-1-2-2.09c-1.37-1.35-2.71-2.74-4.11-4.06s-2.77-2.65-4.18-3.94-2.83-2.57-4.31-3.77Z" style="fill:#2B003F"></path><path d="M173.89,318.43l-3.73,2.89-7.48,5.76-7.47,5.73-7.47,5.67v-.09l7.49-6,7.49-5.9,7.48-5.86,3.74-2.92,1.83-1.43-.23,0-1.8.25-3.61.5-7.2,1-7.19,1-7.15.87.05-.12,7.31-1.22,7.27-1.15,7.25-1.1,3.63-.55,1.81-.27.69-.11-.77-.84-2.29-2.5L169,307,164.42,302l-4.5-5.12.08-.11,4.73,4.8,4.69,4.86,4.65,4.91,2.32,2.46,1,1.07,0-.07a2.35,2.35,0,0,0,0-.27v-1.12l0-2.24,0-4.48-.09-9-.06-9v-9l.09-.08.26,8.82.21,8.85.18,8.89.09,4.45,0,2.22v.29l.91-2.42,1.86-4.94,3.71-9.89,3.75-9.9,3.8-9.91.07,0-3.56,9.84L185,295.73l-3.64,9.87-1.83,4.93L178.6,313l-.4,1.07.37-.51,1.31-1.81,2.63-3.64,5.25-7.27,5.28-7.25,5.29-7.23,0,.05-5.18,7.36L188,301.1l-5.22,7.31-2.61,3.65-1.3,1.83-.14.19,1-.85,2.31-2c1.53-1.32,3.06-2.66,4.6-4l4.6-3.93,4.61-3.88v.09l-4.61,4.14-4.6,4.09c-1.54,1.37-3.07,2.7-4.61,4l-2.3,2-1.15,1-.57.51,0,0,.2.21c.17.24.49.27.37.92l-.15.21c-.51.23-.57-.16-.79-.33l-.12-.13-.17.38-.66,1.54-1.32,3.07c-.88,2.05-1.75,4.09-2.65,6.14L170,333.57l-2.72,6.16h-.07l2.51-6.12,2.55-6.13c.84-2,1.72-4.08,2.58-6.13l1.29-3.07.55-1.3-.13.19-1.3,1.83-2.6,3.67-5.2,7.33-5.21,7.32L157,344.62l-.05,0,5.12-7.42,5.14-7.39,5.16-7.38,2.58-3.68,1.3-1.84.35-.51-.81.62Z" style="fill:#2B003F"></path><g style="opacity:0.8"><path d="M177.28,315.71c1.17,1.64,2.42,3.16,3.63,4.74s2.48,3.05,3.75,4.54,2.56,2.95,3.84,4.44l1.95,2.16,1,1.08.49.54.25.27c.1.06.31,0,.88-.63l.45-.63c.41-.77.45-1,.39-1.16l-.25-.26-.5-.52-1-1-2-2.09c-1.37-1.35-2.71-2.74-4.11-4.06s-2.77-2.65-4.18-3.94-2.83-2.57-4.31-3.77Z" style="fill:#fff"></path><path d="M173.89,318.43l-3.73,2.89-7.48,5.76-7.47,5.73-7.47,5.67v-.09l7.49-6,7.49-5.9,7.48-5.86,3.74-2.92,1.83-1.43-.23,0-1.8.25-3.61.5-7.2,1-7.19,1-7.15.87.05-.12,7.31-1.22,7.27-1.15,7.25-1.1,3.63-.55,1.81-.27.69-.11-.77-.84-2.29-2.5L169,307,164.42,302l-4.5-5.12.08-.11,4.73,4.8,4.69,4.86,4.65,4.91,2.32,2.46,1,1.07,0-.07a2.35,2.35,0,0,0,0-.27v-1.12l0-2.24,0-4.48-.09-9-.06-9v-9l.09-.08.26,8.82.21,8.85.18,8.89.09,4.45,0,2.22v.29l.91-2.42,1.86-4.94,3.71-9.89,3.75-9.9,3.8-9.91.07,0-3.56,9.84L185,295.73l-3.64,9.87-1.83,4.93L178.6,313l-.4,1.07.37-.51,1.31-1.81,2.63-3.64,5.25-7.27,5.28-7.25,5.29-7.23,0,.05-5.18,7.36L188,301.1l-5.22,7.31-2.61,3.65-1.3,1.83-.14.19,1-.85,2.31-2c1.53-1.32,3.06-2.66,4.6-4l4.6-3.93,4.61-3.88v.09l-4.61,4.14-4.6,4.09c-1.54,1.37-3.07,2.7-4.61,4l-2.3,2-1.15,1-.57.51,0,0,.2.21c.17.24.49.27.37.92l-.15.21c-.51.23-.57-.16-.79-.33l-.12-.13-.17.38-.66,1.54-1.32,3.07c-.88,2.05-1.75,4.09-2.65,6.14L170,333.57l-2.72,6.16h-.07l2.51-6.12,2.55-6.13c.84-2,1.72-4.08,2.58-6.13l1.29-3.07.55-1.3-.13.19-1.3,1.83-2.6,3.67-5.2,7.33-5.21,7.32L157,344.62l-.05,0,5.12-7.42,5.14-7.39,5.16-7.38,2.58-3.68,1.3-1.84.35-.51-.81.62Z" style="fill:#fff"></path></g></g><g id="freepik--image--inject-16"><path d="M323.22,173.84,233.78,225.5a4.58,4.58,0,0,0-2.09,3.62v85.21a4.58,4.58,0,0,0,2.09,3.62l1.33.77a4.6,4.6,0,0,0,4.18,0l89.44-51.65a4.62,4.62,0,0,0,2.1-3.62V178.23a4.61,4.61,0,0,0-2.09-3.62l-1.33-.77A4.66,4.66,0,0,0,323.22,173.84Z" style="fill:#ebebeb"></path><path d="M330.74,177.61c-.26-.87-1.06-1.14-2-.58L239.3,228.68a4.13,4.13,0,0,0-1.48,1.56l-5.51-3.18a4.11,4.11,0,0,1,1.47-1.56l89.45-51.66a4.66,4.66,0,0,1,4.18,0l1.32.78A4.6,4.6,0,0,1,330.74,177.61Z" style="fill:#fff"></path><path d="M328.73,177l-89.44,51.65a4.63,4.63,0,0,0-2.09,3.62v85.21c0,1.34.94,1.88,2.09,1.21l89.44-51.65a4.62,4.62,0,0,0,2.1-3.62V178.23C330.82,176.9,329.89,176.36,328.73,177Z" style="fill:#fafafa"></path><polygon points="242.71 233.07 325.31 185.37 325.31 261.72 242.71 309.42 242.71 233.07" style="fill:#2B003F"></polygon><polygon points="242.71 233.07 325.31 185.37 325.31 261.72 242.71 309.42 242.71 233.07" style="fill:#fff;opacity:0.85"></polygon><path d="M284.62,246l-.06,0c-2.87-5.36-.64-11.87,2.23-17.27s11.62-15.3,14.42-15.55c0,0,0,0,0,0,2.71-.12-.89,13.52-2.56,17.61S293.94,242.22,284.62,246Z" style="fill:#2B003F"></path><path d="M280.16,243.71l-.14.21c-5.37-.71-8.83-2.83-8.79-10.51a27,27,0,0,1,4.55-14s6.66,3.5,7.72,10.93A18,18,0,0,1,280.16,243.71Z" style="fill:#2B003F"></path><path d="M274.74,248.82c-4.08,3.05-10.59,2-13.32,0s-4.3-8.59-4.66-9.72a1.1,1.1,0,0,1,.26-1.18,2.73,2.73,0,0,1,2-.64c1.46,0,8.78,0,12.63,3.21S275.66,246.22,274.74,248.82Z" style="fill:#2B003F"></path><path d="M259.18,264.79c-6.38.76-8.31-.09-8.31-.09a34.85,34.85,0,0,1,7.83-7.25c3.11-1.92,14.3-7,15.86-2.17C272.32,260.81,265.55,264,259.18,264.79Z" style="fill:#2B003F"></path><path d="M269,270.76c-5,2.3-6.29,1.82-6.29,1.82s2.61-6.79,4.52-8.9,8.42-5.25,8.42-5.25.32,1.54.77,3.75S273.94,268.45,269,270.76Z" style="fill:#2B003F"></path><path d="M287.16,275.11c-2.5-1.57-6.8-4.87-6.57-8.2.33-4.79,3.23-8.16,3.66-8.34,6.61-2.8,6.19,5.91,5.23,9.59A44.76,44.76,0,0,1,287.16,275.11Z" style="fill:#2B003F"></path><path d="M306.74,268s-3.05.87-8.11-1.17-7.41-5.88-6-10.71a20,20,0,0,1,8.4.2C305,257.49,308.47,262.83,306.74,268Z" style="fill:#2B003F"></path><path d="M317.15,245.91a23.74,23.74,0,0,1-9.95,7,13.24,13.24,0,0,1-13.34-2.8h0c.22-.2,3.76-3.26,6.17-5s9.79-4.14,15.17-2.91c2.26.52,3.12,1,3.29,1.56C318.74,244.52,317.67,245.23,317.15,245.91Z" style="fill:#2B003F"></path><path d="M316,227.89c-3.14,5.27-7.24,12.16-11.61,14.27-4.05,2-10.83,3.18-11.78,3.35l-.12,0c1.62-4.38,2.89-7.67,6.46-11.74s10.63-6.77,13.3-8.1c1.74-.86,4.14-1.91,4.73-1.07C317.27,225.07,317.07,226.05,316,227.89Z" style="fill:#2B003F"></path><g style="opacity:0.2"><path d="M284.62,246l16.63-32.8c2.71-.12-.89,13.52-2.56,17.61S293.94,242.22,284.62,246Z"></path><path d="M280.16,243.71l-.14.21c-5.37-.71-8.83-2.83-8.79-10.51a27,27,0,0,1,4.55-14Z"></path><path d="M274.74,248.82c-4.08,3.05-10.59,2-13.32,0s-4.3-8.59-4.66-9.72a1.1,1.1,0,0,1,.26-1.18Z"></path><path d="M259.18,264.79c-6.38.76-8.31-.09-8.31-.09l23.69-9.42C272.32,260.81,265.55,264,259.18,264.79Z"></path><path d="M269,270.76c-5,2.3-6.29,1.82-6.29,1.82l12.94-14.15s.32,1.54.77,3.75S273.94,268.45,269,270.76Z"></path><path d="M287.16,275.11c-2.5-1.57-6.8-4.87-6.57-8.2.33-4.79,3.23-8.16,3.66-8.34Z"></path><path d="M306.74,268s-3.05.87-8.11-1.17-7.41-5.88-6-10.71Z"></path><path d="M317.15,245.91a23.74,23.74,0,0,1-9.95,7,13.24,13.24,0,0,1-13.34-2.8h0l24.63-6.31C318.74,244.52,317.67,245.23,317.15,245.91Z"></path><path d="M316,227.89c-3.14,5.27-7.24,12.16-11.61,14.27-4.05,2-10.83,3.18-11.78,3.35L317,224.62C317.27,225.07,317.07,226.05,316,227.89Z"></path></g><path d="M303.78,260.89a11.06,11.06,0,0,0-5.72-.9,21.87,21.87,0,0,0-7.58-4.83,15.15,15.15,0,0,0-6.11-.93,80.34,80.34,0,0,1,8.21-3.17c.94-.31,2.31-.74,3.88-1.21a9.06,9.06,0,0,0,3.72,2.14c.08,0,.19-.18.12-.22a17.58,17.58,0,0,1-3.28-2.09l2.19-.65c1.72.94,4.1,2.4,6.42,2.24,0,0,.08-.05.05-.06a23.37,23.37,0,0,0-3-1.11,23.1,23.1,0,0,1-2.64-1.3c1.7-.49,3.41-1,4.94-1.35a.19.19,0,0,0,.08.11,14.2,14.2,0,0,0,4.27,1.54c.08,0,.17-.16.1-.19-.79-.29-1.62-.5-2.37-.85-.47-.22-.85-.55-1.29-.8,1.2-.29,2.26-.52,3-.63.18,0,.24-.39.06-.37-.41,0-.93.11-1.51.21.36-.33.66-.75,1.08-1.11a30.7,30.7,0,0,1,3-2.08s.12-.19,0-.17a10.14,10.14,0,0,0-3.05,1.74,12.73,12.73,0,0,0-2.07,1.8c-1.28.25-2.79.6-4.35,1,.39-.4.75-.84,1-1.14.47-.46,1-.87,1.46-1.31a12.66,12.66,0,0,1,1.28-1.15c.05,0,.11-.17,0-.13a12.68,12.68,0,0,0-3.21,2.32,12.88,12.88,0,0,0-1.84,1.73c-3.41.88-6.87,1.89-8.7,2.45s-3.62,1.19-5.42,1.88c-.68.26-1.41.54-2.12.88.46-.5.92-1,1.39-1.47a88.46,88.46,0,0,1,6.68-6.15l2.65-2.21a12.37,12.37,0,0,0,4.16-.88c.09,0,.2-.23.09-.23a11.7,11.7,0,0,0-2.3.33c-.41.08-.81.12-1.21.16l4.06-3.39a14.7,14.7,0,0,0,4-1.05,25.26,25.26,0,0,0,4-1.68c.12-.08.15-.35,0-.26a20.93,20.93,0,0,1-4.41,1.71c-.8.25-1.73.26-2.59.46,1.94-1.62,3.91-3.28,5.7-4.81a14.12,14.12,0,0,0,2.23-.91,12.21,12.21,0,0,0,2.32-1.27s.06-.11,0-.08c-.82.42-1.62.63-2.38,1a7.76,7.76,0,0,1-1.14.4c1.63-1.41,3.06-2.66,4.08-3.6.06-.05.08-.21,0-.14-1.83,1.38-4.74,3.69-7.82,6.19.17-.28.33-.56.49-.81a31.23,31.23,0,0,1,2.12-3.08c.05-.06,0-.21-.05-.12-.63.75-1.44,1.65-2,2.49s-1.42,1.85-2.09,2.78l-3.5,2.86c.49-.93,1.05-1.83,1.59-2.75a21.27,21.27,0,0,1,2.27-3.41c.05-.06,0-.17-.05-.09a17.69,17.69,0,0,0-2.55,3.55c-.72,1.15-1.54,2.25-2.15,3.43-2.25,1.85-4.26,3.5-5.61,4.63-2,1.64-3.89,3-5.72,4.77-1.46,1.43-2.48,2.17-4,3.84.54-1.55.58-2.06,1.11-3.62a109.89,109.89,0,0,1,4.63-10.58c.12-.27.25-.53.38-.8a17,17,0,0,1,1.34-1.23,20.14,20.14,0,0,1,4.5-2.94s.07-.1,0-.09a13.13,13.13,0,0,0-3.77,2c-.49.36-1.06.77-1.61,1.22q1.25-2.61,2.54-5.2c.32-.36.63-.73,1-1.06a22.25,22.25,0,0,1,2.27-1.84s.06-.11,0-.08a11.91,11.91,0,0,0-2.74,2c.85-1.71,1.7-3.43,2.54-5.14.43-.32.83-.67,1.27-1s1.06-.7,1.6-1c.1,0,.15-.29,0-.22a16.65,16.65,0,0,0-2.76,2c1.19-2.45,2.36-4.9,3.44-7.36.06-.13-.07-.2-.15,0q-1.27,2.19-2.49,4.41c0-.24-.11-.47-.17-.7-.12-.46-.26-.91-.38-1.37,0-.12-.2.05-.18.14.1.46.22.91.34,1.36.07.29.11.62.2.92q-1.29,2.37-2.53,4.76A5.14,5.14,0,0,0,291.5,225c-.06-.07-.19.14-.15.19a7.6,7.6,0,0,1,1,1.57,15.7,15.7,0,0,1,.5,1.51q-1.64,3.18-3.18,6.37a12.69,12.69,0,0,0-1.62-4c-.06-.1-.22.14-.18.22a12,12,0,0,1,.95,2.13c.23.66.38,1.38.67,2-.66,1.34-1.3,2.69-1.94,4h0c-.09.12-.18.24-.25.35s0,.15,0,.17l-.64,1.34a7.94,7.94,0,0,0-1.09-3.23s-.06,0-.05.05a9.44,9.44,0,0,1,.92,3.63c-1.49,3.09-2.44,4.94-4.14,9.2,0,0-.25.62-.73,1.56.23-1.59-.15-1.85-.38-3.29-.4-2.46-.74-4.94-1.09-7.41-.13-1-.3-2-.47-2.92.83-1.42,1.32-2.9,2-4.35.06-.13-.08-.2-.16,0-.71,1.37-1.33,2.74-1.9,4.13-.36-2-.77-4.05-1.21-6a.24.24,0,0,0,.14-.19c.31-1.56,1.26-3.08,1.78-4.64.05-.17-.12-.18-.19,0a34.82,34.82,0,0,0-1.85,4.3c-.47-2.12-1-4.23-1.46-6.35,0-.13-.18.05-.17.14a20.64,20.64,0,0,0,.45,3l-.45-.32a9.62,9.62,0,0,1-1-.85c-.06-.05-.16.11-.13.15a4.94,4.94,0,0,0,.89.88,9.24,9.24,0,0,0,.84.68c.18.82.37,1.63.53,2.45.2,1,.37,2.07.53,3.12a10.48,10.48,0,0,0-2-1.28,13.07,13.07,0,0,1-2.84-2.06c-.05,0-.15.1-.12.15a8.05,8.05,0,0,0,2.28,1.89,22.09,22.09,0,0,0,2.74,1.61c.26,1.77.48,3.55.7,5.34,0,.1,0,.19,0,.28-1.49-1-3.44-1.47-4.46-2.93,0-.06-.13.08-.11.13.9,1.74,3.09,2.23,4.64,3.34.45,3.41,1,6.72,1.25,10.24-1-.54-1.65-1.14-3.06-2A47.73,47.73,0,0,0,273,247a4.62,4.62,0,0,0,0-1.18,5.66,5.66,0,0,0-.35-1.82s-.1.06-.1.09a13.24,13.24,0,0,1,.16,1.57c0,.37,0,.79,0,1.18l-.95-.45c-.63-.3-1.24-.61-1.85-.92a16.78,16.78,0,0,0,.58-4c0-.16-.21,0-.22.11-.14,1.24-.32,2.47-.59,3.73-1-.52-1.95-1.07-2.87-1.65.16-1.38.42-2.76.62-4.14,0-.21-.22-.2-.26,0-.24,1.32-.49,2.63-.65,3.93-.26-.17-.54-.34-.8-.53a18.14,18.14,0,0,0-4.81-2.81s-.1.07-.07.09c.89.55,1.76,1.12,2.63,1.7a13.51,13.51,0,0,1-3.88.19c-.08,0-.16.17-.07.17,1.27.07,2.8.55,4.2-.19,1.51,1,3,2,4.53,3-1.88.61-3.6,1.46-5.47,1.35-.06,0-.15.16-.08.17a13.39,13.39,0,0,0,5.93-1.28c.8.52,1.61,1,2.45,1.5l1.6.92c-1.23.06-2.52.4-3.75.37-.1,0-.21.21-.11.23a8.92,8.92,0,0,0,4-.49,35,35,0,0,1,7.76,5.76c-2.91.93-5.81,1.77-8.7,2.71a2.44,2.44,0,0,0-.82-.95,6.45,6.45,0,0,0-1.58-.95c-.09,0-.17.18-.13.22a8,8,0,0,0,1.39,1.06,5.83,5.83,0,0,1,.75.74c-1.07.35-2.14.73-3.21,1.12a.28.28,0,0,0,0-.22,3.32,3.32,0,0,0-2.83-1.65c-.08,0-.19.16-.11.18a6.33,6.33,0,0,1,1.71.77,3,3,0,0,1,.69.59c.1.13.15.32.26.44-.92.34-1.82.7-2.73,1.08a.16.16,0,0,0-.05-.1c-1.23-.82-2.81-.77-4.4-.93,0,0-.06,0,0,0,1.31.47,2.85.5,4,1.18-.72.31-1.43.64-2.15,1-.07,0-.14.21,0,.16a69.32,69.32,0,0,1,7.27-2.59c-.13,1.12-1.14,2.17-1.72,3.23-.05.08,0,.27.11.15a7,7,0,0,0,2.11-3.53c3-.91,6.12-1.71,9.17-2.64a77.74,77.74,0,0,0-6.63,5.9c-.25.26-.48.54-.73.8a3.69,3.69,0,0,0-.87.15,2.14,2.14,0,0,0-1,.53c-.06.06-.08.23,0,.15a2.65,2.65,0,0,1,1.14-.45c.12,0,.27,0,.41-.05l-.79.89a.25.25,0,0,0-.2.23l-.54.63h0a12.13,12.13,0,0,0-3,1.07c-.1,0-.16.29,0,.24a24.44,24.44,0,0,1,2.52-.71l-1.08,1.28c-.1,0-.23.14-.23.28-.52.61-1,1.22-1.57,1.81-.07.07-.07.28.05.17.58-.51,1.1-1,1.62-1.59.27,1.16-.22,2.65-.42,3.9,0,.13.13,0,.16,0a8.66,8.66,0,0,0,.54-4.16c.73-.8,1.42-1.63,2.14-2.45a7.32,7.32,0,0,1,1,3.8c0,.12.12,0,.14-.07.35-1.53-.35-2.84-.87-4.06.33-.37.67-.73,1-1.09s.87-.85,1.32-1.26a5.82,5.82,0,0,1,.69,1.52c.14.61.26,1.25.37,1.87,0,.11.16,0,.15-.1-.15-1.21-.13-2.69-.81-3.65,2-1.81,4.21-3.47,6.25-5.27a31.71,31.71,0,0,0-1.85,4.57c-1.17,2.84-2.11,5.7-3,8.55-1.83,5.77-3.3,11.75-3.05,17.23a.36.36,0,0,0,.66.13s0,.07,0,.1a.31.31,0,0,0,.59-.07c.68-2.6.49-5.2,1.1-7.84s1.26-5.3,2-8,1.54-5.44,2.52-8.16c.25-.69.53-1.37.82-2.06s.9-2.4,1.57-3.61c.61,1.23,1.31,2.41,1.8,3.7.06.19.11.38.18.57q-.09,0-.15.15a18.17,18.17,0,0,0-1.72,4.56c0,.11.12,0,.14-.06a17,17,0,0,1,1.89-4.14c.13.4.26.81.37,1.22l0,0c-.68,1.7-1.39,3.38-2,5.08-.06.18.13.19.19,0a34.43,34.43,0,0,1,2-4.45c.18.68.35,1.35.52,2-.38,1.82-1.26,3.66-1.34,5.47,0,.13.16,0,.17-.08a26.55,26.55,0,0,1,1.35-4.65c.17.62.35,1.25.55,1.86,0,.13.2-.08.19-.17-.1-1-.25-1.93-.43-2.88a.7.7,0,0,0,0-.14.22.22,0,0,0-.1-.25c-.05-.24-.09-.48-.14-.72,1.09.74,2.23,1.56,2.49,2.9,0,.13.19-.06.18-.15-.22-1.53-1.54-2.51-2.79-3.27-.15-.62-.3-1.24-.47-1.84a5.09,5.09,0,0,1,.56.14,14.46,14.46,0,0,1,1.48.54c.1.05.23-.19.15-.24a9.14,9.14,0,0,0-1.43-.82,3.08,3.08,0,0,0-1-.29l-.18-.64a23.43,23.43,0,0,0-1.47-3.85c4.48-1.11,8.17.25,11.33,2.33a10.88,10.88,0,0,0-.13,3.84c0,.08.13-.06.13-.11a10.7,10.7,0,0,1,.31-3.52c.68.46,1.34.95,2,1.46,0,1.56-.3,3.19-.24,4.74,0,.13.17-.05.18-.12a23.58,23.58,0,0,0,.48-4.28c.57.46,1.12.93,1.65,1.4.27,1.4-.16,3.05.71,4.18.07.09.21-.12.17-.19-.62-1-.38-2.44-.53-3.69l1.55,1.38c.14.12.29-.23.22-.32a26,26,0,0,0-1.94-2.17c.66.07,1.33.12,2,.21,1,.13,2,.37,3.08.4C303.74,261.11,303.85,260.92,303.78,260.89Z" style="fill:#2B003F"></path><path d="M303.78,260.89a11.06,11.06,0,0,0-5.72-.9,21.87,21.87,0,0,0-7.58-4.83,15.15,15.15,0,0,0-6.11-.93,80.34,80.34,0,0,1,8.21-3.17c.94-.31,2.31-.74,3.88-1.21a9.06,9.06,0,0,0,3.72,2.14c.08,0,.19-.18.12-.22a17.58,17.58,0,0,1-3.28-2.09l2.19-.65c1.72.94,4.1,2.4,6.42,2.24,0,0,.08-.05.05-.06a23.37,23.37,0,0,0-3-1.11,23.1,23.1,0,0,1-2.64-1.3c1.7-.49,3.41-1,4.94-1.35a.19.19,0,0,0,.08.11,14.2,14.2,0,0,0,4.27,1.54c.08,0,.17-.16.1-.19-.79-.29-1.62-.5-2.37-.85-.47-.22-.85-.55-1.29-.8,1.2-.29,2.26-.52,3-.63.18,0,.24-.39.06-.37-.41,0-.93.11-1.51.21.36-.33.66-.75,1.08-1.11a30.7,30.7,0,0,1,3-2.08s.12-.19,0-.17a10.14,10.14,0,0,0-3.05,1.74,12.73,12.73,0,0,0-2.07,1.8c-1.28.25-2.79.6-4.35,1,.39-.4.75-.84,1-1.14.47-.46,1-.87,1.46-1.31a12.66,12.66,0,0,1,1.28-1.15c.05,0,.11-.17,0-.13a12.68,12.68,0,0,0-3.21,2.32,12.88,12.88,0,0,0-1.84,1.73c-3.41.88-6.87,1.89-8.7,2.45s-3.62,1.19-5.42,1.88c-.68.26-1.41.54-2.12.88.46-.5.92-1,1.39-1.47a88.46,88.46,0,0,1,6.68-6.15l2.65-2.21a12.37,12.37,0,0,0,4.16-.88c.09,0,.2-.23.09-.23a11.7,11.7,0,0,0-2.3.33c-.41.08-.81.12-1.21.16l4.06-3.39a14.7,14.7,0,0,0,4-1.05,25.26,25.26,0,0,0,4-1.68c.12-.08.15-.35,0-.26a20.93,20.93,0,0,1-4.41,1.71c-.8.25-1.73.26-2.59.46,1.94-1.62,3.91-3.28,5.7-4.81a14.12,14.12,0,0,0,2.23-.91,12.21,12.21,0,0,0,2.32-1.27s.06-.11,0-.08c-.82.42-1.62.63-2.38,1a7.76,7.76,0,0,1-1.14.4c1.63-1.41,3.06-2.66,4.08-3.6.06-.05.08-.21,0-.14-1.83,1.38-4.74,3.69-7.82,6.19.17-.28.33-.56.49-.81a31.23,31.23,0,0,1,2.12-3.08c.05-.06,0-.21-.05-.12-.63.75-1.44,1.65-2,2.49s-1.42,1.85-2.09,2.78l-3.5,2.86c.49-.93,1.05-1.83,1.59-2.75a21.27,21.27,0,0,1,2.27-3.41c.05-.06,0-.17-.05-.09a17.69,17.69,0,0,0-2.55,3.55c-.72,1.15-1.54,2.25-2.15,3.43-2.25,1.85-4.26,3.5-5.61,4.63-2,1.64-3.89,3-5.72,4.77-1.46,1.43-2.48,2.17-4,3.84.54-1.55.58-2.06,1.11-3.62a109.89,109.89,0,0,1,4.63-10.58c.12-.27.25-.53.38-.8a17,17,0,0,1,1.34-1.23,20.14,20.14,0,0,1,4.5-2.94s.07-.1,0-.09a13.13,13.13,0,0,0-3.77,2c-.49.36-1.06.77-1.61,1.22q1.25-2.61,2.54-5.2c.32-.36.63-.73,1-1.06a22.25,22.25,0,0,1,2.27-1.84s.06-.11,0-.08a11.91,11.91,0,0,0-2.74,2c.85-1.71,1.7-3.43,2.54-5.14.43-.32.83-.67,1.27-1s1.06-.7,1.6-1c.1,0,.15-.29,0-.22a16.65,16.65,0,0,0-2.76,2c1.19-2.45,2.36-4.9,3.44-7.36.06-.13-.07-.2-.15,0q-1.27,2.19-2.49,4.41c0-.24-.11-.47-.17-.7-.12-.46-.26-.91-.38-1.37,0-.12-.2.05-.18.14.1.46.22.91.34,1.36.07.29.11.62.2.92q-1.29,2.37-2.53,4.76A5.14,5.14,0,0,0,291.5,225c-.06-.07-.19.14-.15.19a7.6,7.6,0,0,1,1,1.57,15.7,15.7,0,0,1,.5,1.51q-1.64,3.18-3.18,6.37a12.69,12.69,0,0,0-1.62-4c-.06-.1-.22.14-.18.22a12,12,0,0,1,.95,2.13c.23.66.38,1.38.67,2-.66,1.34-1.3,2.69-1.94,4h0c-.09.12-.18.24-.25.35s0,.15,0,.17l-.64,1.34a7.94,7.94,0,0,0-1.09-3.23s-.06,0-.05.05a9.44,9.44,0,0,1,.92,3.63c-1.49,3.09-2.44,4.94-4.14,9.2,0,0-.25.62-.73,1.56.23-1.59-.15-1.85-.38-3.29-.4-2.46-.74-4.94-1.09-7.41-.13-1-.3-2-.47-2.92.83-1.42,1.32-2.9,2-4.35.06-.13-.08-.2-.16,0-.71,1.37-1.33,2.74-1.9,4.13-.36-2-.77-4.05-1.21-6a.24.24,0,0,0,.14-.19c.31-1.56,1.26-3.08,1.78-4.64.05-.17-.12-.18-.19,0a34.82,34.82,0,0,0-1.85,4.3c-.47-2.12-1-4.23-1.46-6.35,0-.13-.18.05-.17.14a20.64,20.64,0,0,0,.45,3l-.45-.32a9.62,9.62,0,0,1-1-.85c-.06-.05-.16.11-.13.15a4.94,4.94,0,0,0,.89.88,9.24,9.24,0,0,0,.84.68c.18.82.37,1.63.53,2.45.2,1,.37,2.07.53,3.12a10.48,10.48,0,0,0-2-1.28,13.07,13.07,0,0,1-2.84-2.06c-.05,0-.15.1-.12.15a8.05,8.05,0,0,0,2.28,1.89,22.09,22.09,0,0,0,2.74,1.61c.26,1.77.48,3.55.7,5.34,0,.1,0,.19,0,.28-1.49-1-3.44-1.47-4.46-2.93,0-.06-.13.08-.11.13.9,1.74,3.09,2.23,4.64,3.34.45,3.41,1,6.72,1.25,10.24-1-.54-1.65-1.14-3.06-2A47.73,47.73,0,0,0,273,247a4.62,4.62,0,0,0,0-1.18,5.66,5.66,0,0,0-.35-1.82s-.1.06-.1.09a13.24,13.24,0,0,1,.16,1.57c0,.37,0,.79,0,1.18l-.95-.45c-.63-.3-1.24-.61-1.85-.92a16.78,16.78,0,0,0,.58-4c0-.16-.21,0-.22.11-.14,1.24-.32,2.47-.59,3.73-1-.52-1.95-1.07-2.87-1.65.16-1.38.42-2.76.62-4.14,0-.21-.22-.2-.26,0-.24,1.32-.49,2.63-.65,3.93-.26-.17-.54-.34-.8-.53a18.14,18.14,0,0,0-4.81-2.81s-.1.07-.07.09c.89.55,1.76,1.12,2.63,1.7a13.51,13.51,0,0,1-3.88.19c-.08,0-.16.17-.07.17,1.27.07,2.8.55,4.2-.19,1.51,1,3,2,4.53,3-1.88.61-3.6,1.46-5.47,1.35-.06,0-.15.16-.08.17a13.39,13.39,0,0,0,5.93-1.28c.8.52,1.61,1,2.45,1.5l1.6.92c-1.23.06-2.52.4-3.75.37-.1,0-.21.21-.11.23a8.92,8.92,0,0,0,4-.49,35,35,0,0,1,7.76,5.76c-2.91.93-5.81,1.77-8.7,2.71a2.44,2.44,0,0,0-.82-.95,6.45,6.45,0,0,0-1.58-.95c-.09,0-.17.18-.13.22a8,8,0,0,0,1.39,1.06,5.83,5.83,0,0,1,.75.74c-1.07.35-2.14.73-3.21,1.12a.28.28,0,0,0,0-.22,3.32,3.32,0,0,0-2.83-1.65c-.08,0-.19.16-.11.18a6.33,6.33,0,0,1,1.71.77,3,3,0,0,1,.69.59c.1.13.15.32.26.44-.92.34-1.82.7-2.73,1.08a.16.16,0,0,0-.05-.1c-1.23-.82-2.81-.77-4.4-.93,0,0-.06,0,0,0,1.31.47,2.85.5,4,1.18-.72.31-1.43.64-2.15,1-.07,0-.14.21,0,.16a69.32,69.32,0,0,1,7.27-2.59c-.13,1.12-1.14,2.17-1.72,3.23-.05.08,0,.27.11.15a7,7,0,0,0,2.11-3.53c3-.91,6.12-1.71,9.17-2.64a77.74,77.74,0,0,0-6.63,5.9c-.25.26-.48.54-.73.8a3.69,3.69,0,0,0-.87.15,2.14,2.14,0,0,0-1,.53c-.06.06-.08.23,0,.15a2.65,2.65,0,0,1,1.14-.45c.12,0,.27,0,.41-.05l-.79.89a.25.25,0,0,0-.2.23l-.54.63h0a12.13,12.13,0,0,0-3,1.07c-.1,0-.16.29,0,.24a24.44,24.44,0,0,1,2.52-.71l-1.08,1.28c-.1,0-.23.14-.23.28-.52.61-1,1.22-1.57,1.81-.07.07-.07.28.05.17.58-.51,1.1-1,1.62-1.59.27,1.16-.22,2.65-.42,3.9,0,.13.13,0,.16,0a8.66,8.66,0,0,0,.54-4.16c.73-.8,1.42-1.63,2.14-2.45a7.32,7.32,0,0,1,1,3.8c0,.12.12,0,.14-.07.35-1.53-.35-2.84-.87-4.06.33-.37.67-.73,1-1.09s.87-.85,1.32-1.26a5.82,5.82,0,0,1,.69,1.52c.14.61.26,1.25.37,1.87,0,.11.16,0,.15-.1-.15-1.21-.13-2.69-.81-3.65,2-1.81,4.21-3.47,6.25-5.27a31.71,31.71,0,0,0-1.85,4.57c-1.17,2.84-2.11,5.7-3,8.55-1.83,5.77-3.3,11.75-3.05,17.23a.36.36,0,0,0,.66.13s0,.07,0,.1a.31.31,0,0,0,.59-.07c.68-2.6.49-5.2,1.1-7.84s1.26-5.3,2-8,1.54-5.44,2.52-8.16c.25-.69.53-1.37.82-2.06s.9-2.4,1.57-3.61c.61,1.23,1.31,2.41,1.8,3.7.06.19.11.38.18.57q-.09,0-.15.15a18.17,18.17,0,0,0-1.72,4.56c0,.11.12,0,.14-.06a17,17,0,0,1,1.89-4.14c.13.4.26.81.37,1.22l0,0c-.68,1.7-1.39,3.38-2,5.08-.06.18.13.19.19,0a34.43,34.43,0,0,1,2-4.45c.18.68.35,1.35.52,2-.38,1.82-1.26,3.66-1.34,5.47,0,.13.16,0,.17-.08a26.55,26.55,0,0,1,1.35-4.65c.17.62.35,1.25.55,1.86,0,.13.2-.08.19-.17-.1-1-.25-1.93-.43-2.88a.7.7,0,0,0,0-.14.22.22,0,0,0-.1-.25c-.05-.24-.09-.48-.14-.72,1.09.74,2.23,1.56,2.49,2.9,0,.13.19-.06.18-.15-.22-1.53-1.54-2.51-2.79-3.27-.15-.62-.3-1.24-.47-1.84a5.09,5.09,0,0,1,.56.14,14.46,14.46,0,0,1,1.48.54c.1.05.23-.19.15-.24a9.14,9.14,0,0,0-1.43-.82,3.08,3.08,0,0,0-1-.29l-.18-.64a23.43,23.43,0,0,0-1.47-3.85c4.48-1.11,8.17.25,11.33,2.33a10.88,10.88,0,0,0-.13,3.84c0,.08.13-.06.13-.11a10.7,10.7,0,0,1,.31-3.52c.68.46,1.34.95,2,1.46,0,1.56-.3,3.19-.24,4.74,0,.13.17-.05.18-.12a23.58,23.58,0,0,0,.48-4.28c.57.46,1.12.93,1.65,1.4.27,1.4-.16,3.05.71,4.18.07.09.21-.12.17-.19-.62-1-.38-2.44-.53-3.69l1.55,1.38c.14.12.29-.23.22-.32a26,26,0,0,0-1.94-2.17c.66.07,1.33.12,2,.21,1,.13,2,.37,3.08.4C303.74,261.11,303.85,260.92,303.78,260.89Z" style="opacity:0.4"></path></g><g id="freepik--image--inject-16"><g id="freepik--image--inject-16"><path d="M347.58,220.52l-89.44,51.65a4.64,4.64,0,0,0-2.09,3.62V361a4.64,4.64,0,0,0,2.09,3.62l1.33.77a4.62,4.62,0,0,0,4.19,0l89.44-51.65a4.64,4.64,0,0,0,2.09-3.63V224.91a4.63,4.63,0,0,0-2.09-3.62l-1.33-.77A4.62,4.62,0,0,0,347.58,220.52Z" style="fill:#ebebeb"></path><path d="M355.11,224.29c-.26-.87-1.07-1.15-2-.58l-89.43,51.65a4.21,4.21,0,0,0-1.48,1.56l-5.5-3.19a4.16,4.16,0,0,1,1.46-1.56l89.45-51.65a4.66,4.66,0,0,1,4.18,0l1.32.77A4.6,4.6,0,0,1,355.11,224.29Z" style="fill:#fff"></path><path d="M353.1,223.7l-89.44,51.65a4.63,4.63,0,0,0-2.1,3.63v85.21c0,1.33.93,1.88,2.09,1.21l89.44-51.65a4.64,4.64,0,0,0,2.09-3.63V224.91C355.19,223.58,354.25,223,353.1,223.7Z" style="fill:#fafafa"></path><polygon points="267.08 279.74 349.68 232.04 349.68 308.39 267.08 356.1 267.08 279.74" style="fill:#2B003F"></polygon><polygon points="267.08 279.74 349.68 232.04 349.68 308.39 267.08 356.1 267.08 279.74" style="fill:#fff;opacity:0.85"></polygon></g><path d="M331.31,277.2a11.84,11.84,0,0,0-10.54-.61c-6,2.43-3.9,4.55-.27,3.28s9.25-1.22,10,2.53-1.78,11.84-1.78,11.84-2.6-6.17-5.85-7-6.07,1.24-1.19,3.46,4.85,8.55,4.85,8.55a63.37,63.37,0,0,1-3.22,8.11c-1.78-7.49-4.48-4.26-3.1-1.31a17.71,17.71,0,0,1,1.47,6.21c-1.23,2.53-5.44,9.13-5.7,9.55v0c.06-1.33,1.11-28.3-13.72-42.51h0a5,5,0,0,0,1.32-.5,2.59,2.59,0,0,0,.93-1.36c1.31-3.28,2-11.14,6-13,4.86-2.27,7-1.88,11.74-2.79a5.26,5.26,0,0,1,6.12,3.69c-.18-.12-1.91-1.11-6.91,2.33-5.29,3.67-4.28,6.7-.61,3.63a30,30,0,0,1,8-4.66C331.91,269.06,331.31,277.2,331.31,277.2Z" style="fill:#2B003F"></path><path d="M331.31,277.2a11.84,11.84,0,0,0-10.54-.61c-6,2.43-3.9,4.55-.27,3.28s9.25-1.22,10,2.53-1.78,11.84-1.78,11.84-2.6-6.17-5.85-7-6.07,1.24-1.19,3.46,4.85,8.55,4.85,8.55a63.37,63.37,0,0,1-3.22,8.11c-1.78-7.49-4.48-4.26-3.1-1.31a17.71,17.71,0,0,1,1.47,6.21c-1.23,2.53-5.44,9.13-5.7,9.55v0c.06-1.33,1.11-28.3-13.72-42.51h0a5,5,0,0,0,1.32-.5,2.59,2.59,0,0,0,.93-1.36c1.31-3.28,2-11.14,6-13,4.86-2.27,7-1.88,11.74-2.79a5.26,5.26,0,0,1,6.12,3.69c-.18-.12-1.91-1.11-6.91,2.33-5.29,3.67-4.28,6.7-.61,3.63a30,30,0,0,1,8-4.66C331.91,269.06,331.31,277.2,331.31,277.2Z" style="opacity:0.30000000000000004"></path><path d="M315.93,321.78v.06c-.9-5.93-8.11-4.86-8.11-4.86s-.42-7,.5-11.52-1.66-4-3.17,2.26-.84,9.64-.84,9.64a19.64,19.64,0,0,1-9.72-.59c-1.16-7.85,2.85-13.72,6.23-20.06s-3.33-1.59-6.64,5.54a37.36,37.36,0,0,0-3.57,12.68c-4.46-1.77-7.1-6.28-7.1-6.28,1.46-4.79,6.63-9.88,9.24-13.06s-1.18-3.9-5,1.45a32.76,32.76,0,0,0-5,10.83c-4.31-6.42,1.05-20.11,1.05-20.11l3-1.76s3.15-8.95,6.72-8.8c3.11.13,5.72,2.71,8.73,2.06h0C317,293.48,316,320.45,315.93,321.78Z" style="fill:#2B003F"></path><path d="M315.93,321.78v.06c-.9-5.93-8.11-4.86-8.11-4.86s-.42-7,.5-11.52-1.66-4-3.17,2.26-.84,9.64-.84,9.64a19.64,19.64,0,0,1-9.72-.59c-1.16-7.85,2.85-13.72,6.23-20.06s-3.33-1.59-6.64,5.54a37.36,37.36,0,0,0-3.57,12.68c-4.46-1.77-7.1-6.28-7.1-6.28,1.46-4.79,6.63-9.88,9.24-13.06s-1.18-3.9-5,1.45a32.76,32.76,0,0,0-5,10.83c-4.31-6.42,1.05-20.11,1.05-20.11l3-1.76s3.15-8.95,6.72-8.8c3.11.13,5.72,2.71,8.73,2.06h0C317,293.48,316,320.45,315.93,321.78Z" style="opacity:0.4"></path><path d="M327.23,271.55c-3.33.52-6.88,2.19-10.3,4.12-2.9,1.63-6.66,4.07-8.8,7.62-.42-.78-.83-1.49-1.21-2.13,1.17-2.6,1.74-5.26,3.19-7.88a21.18,21.18,0,0,1,6.79-7.63c.17-.1.09-.5-.06-.42a18,18,0,0,0-7.06,6.95,32.29,32.29,0,0,0-3.67,7.64c-1-1.56-1.63-2.42-1.63-2.42a2.59,2.59,0,0,1-.93,1.36,5,5,0,0,1-1.32.5h0c.64.62,1.24,1.27,1.83,1.93-6.24.27-14.13,4.44-19,12.33,0,.08,0,.29.05.17a27.09,27.09,0,0,1,9.63-8.65c3.57-1.91,6.71-2.16,10.12-2.95a36.43,36.43,0,0,1,2.55,3.54c-2.82.16-6.87,3.7-9.27,6.17a45.85,45.85,0,0,0-10.25,16.51s0,.16,0,.07c1.67-2.83,2.61-5.73,4.56-8.46,1.33-1.87,2.79-3.73,4.26-5.44,3.19-3.7,7.43-7.42,11.16-8.05a44.88,44.88,0,0,1,2.65,5.1l-.07,0a36,36,0,0,0-8.13,11c-1.51,3.2-3,8.65-2.53,11.47,0,.18.19,0,.18-.14-.15-7.33,5.28-16.45,10.92-21.55a56.47,56.47,0,0,1,2.25,6.47,32,32,0,0,0-1,12.87c0,.17.18.09.17-.1a38.67,38.67,0,0,1,1.16-11.76,79.72,79.72,0,0,1,2.5,21.9,55.41,55.41,0,0,0,.09-14.37c1.58,1,2.41,3,3.19,4.93,0,.09.11-.09.09-.15-.6-2.33-1.54-4.78-3.39-5.7a64.62,64.62,0,0,0-2.49-10.86c3.78-.52,7.54.28,9.69,3.2,0,0,.06-.09,0-.11-2.22-3-5.78-5.35-10.07-4.11-.68-2-1.42-3.93-2.18-5.66,1.86-.8,3.73-2,5.6-2.84a22.79,22.79,0,0,1,9-1.85c.1,0,.12-.24,0-.26-4.16-.81-10.2.74-15,4.12-.65-1.45-1.31-2.78-1.93-4l.13-.11a36.6,36.6,0,0,1,18.5-12.11C327.39,271.9,327.37,271.52,327.23,271.55Z" style="fill:#2B003F"></path></g><g id="freepik--image--inject-16"><g id="freepik--image--inject-16"><path d="M239.09,283l-89.45,51.65a4.64,4.64,0,0,0-2.09,3.62v85.22a4.64,4.64,0,0,0,2.09,3.62l1.34.77a4.66,4.66,0,0,0,4.18,0L244.6,376.2a4.58,4.58,0,0,0,2.09-3.62V287.37a4.61,4.61,0,0,0-2.09-3.62l-1.33-.77A4.6,4.6,0,0,0,239.09,283Z" style="fill:#ebebeb"></path><path d="M246.61,286.75c-.26-.87-1.06-1.15-2-.58l-89.44,51.65a4.21,4.21,0,0,0-1.48,1.56l-5.5-3.19a4.16,4.16,0,0,1,1.46-1.56L239.09,283a4.68,4.68,0,0,1,4.19,0l1.32.77A4.62,4.62,0,0,1,246.61,286.75Z" style="fill:#fff"></path><path d="M244.6,286.16l-89.44,51.65a4.62,4.62,0,0,0-2.09,3.63v85.21c0,1.33.93,1.87,2.09,1.21L244.6,376.2a4.58,4.58,0,0,0,2.09-3.62V287.37C246.69,286,245.75,285.49,244.6,286.16Z" style="fill:#fafafa"></path><polygon points="158.58 342.2 241.18 294.5 241.18 370.85 158.58 418.56 158.58 342.2" style="fill:#2B003F"></polygon><polygon points="158.58 342.2 241.18 294.5 241.18 370.85 158.58 418.56 158.58 342.2" style="fill:#fff;opacity:0.85"></polygon></g><path d="M221.58,342.78a34.59,34.59,0,0,1-3.67,5.84c-1.93,2.65-3.65,4.86-3.79,7.35,0,.15,0,.3,0,.46s0,.37,0,.37c-.35,4.09-1.62,9.89-4.31,12.63-1.44,1.48-3.35,2.33-5.27,3.69a14,14,0,0,0-5.18,6.47c0,.1-.05.15-.05.15-2.78,6.86-6.21,6-8.69,9.16s-.41,7.25-.41,7.25c-9.94-4.23-8.18-11.74-8.09-14.37s-3.85-7.43-3.79-12.11a13.48,13.48,0,0,1,2.2-7,11.73,11.73,0,0,0,1.05-2.22,13.53,13.53,0,0,0,0-4.33c-.38-3.69-1.1-8.6-.06-12,1.27-4.11,2.16-4.37,3.73-5.08h0c.37-.18.77-.37,1.22-.64a6.44,6.44,0,0,0,2.29-2.9,56.28,56.28,0,0,1,3.12-6.36c2.49-3.91,6.26-2.64,7.19.63s-1.69,9.82,1.8,8.39c1.87-.78,3.54-4.18,5.92-6.79s6.35-6,12.12-4S224.29,337,221.58,342.78Z" style="fill:#2B003F"></path><path d="M190.13,396.13c-9.92-4.23-8.16-11.72-8.07-14.35s-3.85-7.43-3.79-12.11,2.46-6.71,3.25-9.24-1.67-11.19-.1-16.29,2.56-4.27,5-5.73,2.92-5.37,5.41-9.26,6.26-2.64,7.19.63c.63,2.21-.37,6,0,7.68-5.33,11.25-23.1,51.52-8.95,58.64C190.1,396.12,190.11,396.13,190.13,396.13Z" style="opacity:0.2"></path><path d="M193.91,338.58c-2.87-1.31-8.18.3-8.71.47.37-.18.77-.37,1.22-.64a6.44,6.44,0,0,0,2.29-2.9A7.15,7.15,0,0,1,193.91,338.58Z" style="opacity:0.2"></path><path d="M188.2,354.54c-4.65,1.75-7.7,8.13-7.7,8.13l0,0a11.73,11.73,0,0,0,1.05-2.22,13.53,13.53,0,0,0,0-4.33A17,17,0,0,1,188.2,354.54Z" style="opacity:0.2"></path><path d="M214.12,356c0,.15,0,.3,0,.46.07-1.7.13-8.8-4.1-13.65.41.13,6,2.08,7.93,5.84C216,351.27,214.26,353.48,214.12,356Z" style="opacity:0.2"></path><path d="M204.48,373.12a14,14,0,0,0-5.18,6.47c.33-.9,2-6,0-13.57C199.27,366,203.12,369.32,204.48,373.12Z" style="opacity:0.2"></path><path d="M202.21,350.44a9.66,9.66,0,0,1-4-3.85,3.3,3.3,0,0,0-1.48-1.64c1.4-3.09,2.56-5.35,3.24-6.58-.55,0-.84-.34-1-.91-.44.92-1,2.05-1.55,3.33a25.2,25.2,0,0,0-2.89-.21,22,22,0,0,0-3.66.91c-1.71.59-2.88,3.38-4.74,3,0,0-.08.1-.05.12,1.66,1.16,3.14-1.92,4.92-2.13a11.53,11.53,0,0,0,2.92-.33,11.93,11.93,0,0,1,3-.22c-1.8,4-4.05,9.35-6.13,15.12-2,.94-3.15,3.51-5.07,4.71-1.05.64-2.33,1.27-2.59,2.86h0c.77-2.14,2.79-2,4.09-3.3.62-.62,1.15-1.4,1.76-2a5.42,5.42,0,0,1,1.39-1c-5.42,15.36-9.35,33.33-.34,37.86-.68-.57-7.49-4.29-2.65-23.94.73-3,1.53-5.82,2.34-8.5.6,1.9.92,3.86,1.39,5.91.63,2.77,2.43,4.46,3.07,7.2,0,.16.16-.07.15-.17-.25-2.74-1.7-4.71-2.25-7.28s-.64-5.16-1.92-7.1a158.78,158.78,0,0,1,6-16.09c1.1,1.56,1.91,3.47,3.48,4.4.84.5,1.77.81,2.62,1.28,1.63.9,2.21,2.06,3.19,3.79h0C205.62,352.91,203.82,351.43,202.21,350.44Z" style="fill:#2B003F"></path><path d="M202.21,350.44a9.66,9.66,0,0,1-4-3.85,3.3,3.3,0,0,0-1.48-1.64c1.4-3.09,2.56-5.35,3.24-6.58-.55,0-.84-.34-1-.91-.44.92-1,2.05-1.55,3.33a25.2,25.2,0,0,0-2.89-.21,22,22,0,0,0-3.66.91c-1.71.59-2.88,3.38-4.74,3,0,0-.08.1-.05.12,1.66,1.16,3.14-1.92,4.92-2.13a11.53,11.53,0,0,0,2.92-.33,11.93,11.93,0,0,1,3-.22c-1.8,4-4.05,9.35-6.13,15.12-2,.94-3.15,3.51-5.07,4.71-1.05.64-2.33,1.27-2.59,2.86h0c.77-2.14,2.79-2,4.09-3.3.62-.62,1.15-1.4,1.76-2a5.42,5.42,0,0,1,1.39-1c-5.42,15.36-9.35,33.33-.34,37.86-.68-.57-7.49-4.29-2.65-23.94.73-3,1.53-5.82,2.34-8.5.6,1.9.92,3.86,1.39,5.91.63,2.77,2.43,4.46,3.07,7.2,0,.16.16-.07.15-.17-.25-2.74-1.7-4.71-2.25-7.28s-.64-5.16-1.92-7.1a158.78,158.78,0,0,1,6-16.09c1.1,1.56,1.91,3.47,3.48,4.4.84.5,1.77.81,2.62,1.28,1.63.9,2.21,2.06,3.19,3.79h0C205.62,352.91,203.82,351.43,202.21,350.44Z" style="fill:#fff;opacity:0.8"></path></g></g><g id="freepik--speech-bubble--inject-16"><g id="freepik--speach-bubble--inject-16"><path d="M411.12,152.63l-3.42-6.43,2.75-7.94V133.4L402,138.26v4.86l3.61,6.27a.65.65,0,0,0,.25.22h0Z" style="fill:#2B003F"></path><path d="M411.12,152.63l-3.42-6.43,2.75-7.94V133.4L402,138.26v4.86l3.61,6.27a.65.65,0,0,0,.25.22h0Z" style="opacity:0.2"></path><path d="M431.22,94.77a5.59,5.59,0,0,0-2.52-4.37l-2.06-1.18a5.53,5.53,0,0,0-5,0l-31.51,18.22a5.56,5.56,0,0,0-2.53,4.37v34.67a5.56,5.56,0,0,0,2.53,4.37l2.05,1.19a5.61,5.61,0,0,0,5.05,0l10.13-5.86,3.61,6.26a.54.54,0,0,0,1-.1l3.81-11,13-7.52a5.57,5.57,0,0,0,2.52-4.37Z" style="fill:#2B003F"></path><path d="M387.56,146.48a5.56,5.56,0,0,0,2.53,4.37l2.05,1.19a5.67,5.67,0,0,0,4.62.2c-1.19.45-2.1-.22-2.1-1.66V115.91a5.26,5.26,0,0,1,.74-2.49l-7.1-4.1a5.15,5.15,0,0,0-.74,2.49Z" style="opacity:0.2"></path><path d="M431.14,94.06c-.3-1.08-1.27-1.42-2.44-.75l-31.51,18.23a5,5,0,0,0-1.78,1.89l-7.1-4.1a5.05,5.05,0,0,1,1.78-1.88l31.5-18.23a5.61,5.61,0,0,1,5.05,0l2.06,1.19A5.56,5.56,0,0,1,431.14,94.06Z" style="fill:#fff;opacity:0.5"></path><path d="M424.53,107.92c-3.79,5.06-2.9,14.56-6.72,21s-8.42,8.6-12.47,7.05a39.93,39.93,0,0,1,11.39-20.91c-4.8,3-11.57,8.23-13.25,20.22-2.85-2.15-4.26-9,1-15.84C411.62,110.11,424.53,107.92,424.53,107.92Z" style="fill:#fff"></path></g></g><g id="freepik--Character--inject-16"><g id="freepik--character--inject-16"><polygon points="401.18 210.07 402.41 222.88 413.86 222.17 412.94 207.96 401.18 210.07" style="fill:#ffa8a7"></polygon><path d="M386.51,185.44a5.85,5.85,0,0,1,0-1.82,5.46,5.46,0,0,1,7.22-4.16,5.37,5.37,0,0,1,3-5.87,6.78,6.78,0,0,1,5.26.21,4.16,4.16,0,0,1,2.3,2,5.77,5.77,0,0,1,10.52,1.42c1.74-.39,4.21.39,5,2.12.88,2-.2,4.4.2,6.47.27,1.33.84,2.59,1.09,3.94a33.46,33.46,0,0,1,.42,4.57c.25,6.33-14.43,10.44-14.14,14.78l-7.83-9.52c0-.4-1.1-1.39-1.35-1.72-.47-.63-.88-1.3-1.32-2a12.25,12.25,0,0,0-5.39-4.31,10,10,0,0,1-3.86-3.16A7,7,0,0,1,386.51,185.44Z" style="fill:#263238"></path><path d="M392.68,196s-2.53,3.77-2.2,4.17a6,6,0,0,0,1.94.82Z" style="fill:#f28f8f"></path><path d="M400.43,184.08c-2.46,1.25-6.72,3.56-7.82,12.48-1.12,9.17.95,12.35,2.22,13.55.86.81,5.29,1.1,7.59.4,2.89-.88,9.15-3.92,12.09-8.65,3.45-5.56,4.16-13,.18-15.88C409.08,181.89,402.52,183,400.43,184.08Z" style="fill:#ffa8a7"></path><path d="M395.07,210.27c1,.58,4,.81,6.17.49l-.06-1.64a17,17,0,0,1-2.92.95A10.15,10.15,0,0,1,395.07,210.27Z" style="fill:#f28f8f"></path><path d="M399.35,183.8a9.79,9.79,0,0,0-2.87,1.66,3.87,3.87,0,0,0-1,1.3,3,3,0,0,0-.21,1.47,4,4,0,0,0,2.3,3.19,3.85,3.85,0,0,0-.62,3.19,7.73,7.73,0,0,0,2.26,3.25.49.49,0,0,0,.19.14.54.54,0,0,0,.41-.12c1.54-1,2.5-2.83,4.69-2.11,2.87.94,2.73,4.49.48,6.7a4,4,0,0,1-2.75,1.39,4.21,4.21,0,0,1-1.58-.14,6.64,6.64,0,0,0,3.84,6.06,16,16,0,0,0,8.59.11c1.51-1.93,4.05-4.39,6.14-6.59,6.9-7.24,7.29-17.76-2.87-21.09-.35-.11-.71-.22-1.06-.31a21.76,21.76,0,0,0-14.76,1.39Z" style="fill:#263238"></path><path d="M399,201.09a2.12,2.12,0,0,1-1.3-2.73,2.19,2.19,0,0,1,2.78-1.28Z" style="fill:#263238"></path><path d="M415.8,216.14c4.25-1,8.92,2,11.65,8.69s8.22,22.4,9.36,26.86c.51,2-14.66,20.95-14.12,20.69.17-.08-4.93-8.62-4.93-8.62L424.57,251l-4.07-10.86Z" style="fill:#ffa8a7"></path><g id="freepik--image--inject-16"><path d="M377.54,226.77,467,278.42a4.63,4.63,0,0,1,2.09,3.62v85.21a4.63,4.63,0,0,1-2.1,3.63l-1.33.76a4.6,4.6,0,0,1-4.18,0L372,320a4.61,4.61,0,0,1-2.09-3.62V231.15a4.64,4.64,0,0,1,2.09-3.62l1.33-.76A4.6,4.6,0,0,1,377.54,226.77Z" style="fill:#e0e0e0"></path><path d="M370,230.53c.26-.87,1.06-1.14,2-.58l89.44,51.65a4.32,4.32,0,0,1,1.48,1.57l5.5-3.19a4.16,4.16,0,0,0-1.46-1.56l-89.45-51.65a4.68,4.68,0,0,0-4.19,0l-1.32.77A4.6,4.6,0,0,0,370,230.53Z" style="fill:#fff"></path><path d="M372,230l89.44,51.65a4.61,4.61,0,0,1,2.09,3.62v85.22c0,1.33-.93,1.87-2.09,1.2L372,320a4.61,4.61,0,0,1-2.09-3.62V231.15C369.94,229.82,370.88,229.28,372,230Z" style="fill:#f5f5f5"></path><polygon points="458.05 285.99 375.45 238.29 375.45 314.64 458.05 362.34 458.05 285.99" style="fill:#2B003F"></polygon><polygon points="458.05 285.99 375.45 238.29 375.45 314.64 458.05 362.34 458.05 285.99" style="fill:#fff;opacity:0.8"></polygon></g><path d="M386.15,303.94c.37,3.36,4.51,9,4.51,9,.38-4.25,5.32-9.33,10.09-10.75s5.79.13-.45,3.55-6.58,10.69-6.58,10.69c1.2,1.91,5.8,5.33,5.8,5.33s2.4-10.24,7-12,5.79-1.2,1,4.23-4,10.95-4,10.95c1.59,1.71,6.31,3.57,6.31,3.57s-.58-6.57,2.73-9.73,4-.91,1.94,2.26-2.08,9.2-2.08,9.2c2.16,1.8,7.29,3.57,7.29,3.57s-.57-6.43,1.92-9.4,3.45-2,2,1.75.29,7.8.29,7.8a22.5,22.5,0,0,0,6.79,2.76c3.9.85,4.82,2.86,4.82,2.86C440.7,336.23,443,330,443,330a61,61,0,0,0-4.53-6.59c-2.1-2.51-5.11-4.18-2.63-4.56S445.89,327,445.89,327c1.59-2.19,3.7-6,3.7-6-4.94-1.4-8.9-6.73-11.75-8.24s-6.88-2.35-5.14-4.43,7.57,2.14,10.94,4.65a75.77,75.77,0,0,0,7.27,4.67c2.95-5.29,1-11.78,1-11.78a54.83,54.83,0,0,0-18.14-4.7c-5.66-.37-5.76-3.54,2.73-3.29a41.15,41.15,0,0,1,14.87,3.27c-.41-6.32-2.62-8.44-2.62-8.44-4.19-2.28-13.71-1.65-16.77-.08s-11.91,2-2.72-1.66,19.12-1.67,19.12-1.67c-1.46-6.86-8.34-10.53-8.34-10.53a20.11,20.11,0,0,0-9.73,3.84c-3,2.09-6.51,7.43-7.13,3s7.84-8.12,7.84-8.12c-15-.82-15.9,6.71-15.46,10.64.34,3.11,1.79,5.83,1.07,6.94h0a1.28,1.28,0,0,1-1.08.49,2.2,2.2,0,0,1-1.14-.22h0c-1.73-.82-3-3.62-4.87-5.8-2.26-2.65-6.87-4.88-15.52-1.47s-8.51,9.7-8.51,9.7c1.74-3.4,7.45-5.29,12.64-5.52s7.67,1.85,7.27,3.36-8.21-.33-12.06.54S385.78,300.57,386.15,303.94Zm21.24-8.4c-.83-.26-.39-1,.32-1C409,294.41,408.53,295.89,407.39,295.54Zm15.77-7.63c.13.63-.44,1.15-.75,1.66s-.75,1.3-1.16.69c-.31-.46,0-1.61.13-2.1s.29-1,.76-1.05S423.08,287.51,423.16,287.91Zm-.05,7.23c-.42.21-1.14.5-1-.28a1.69,1.69,0,0,1,1.68-.95C424.85,294.25,423.54,294.94,423.11,295.14Zm5.46,4.16c.23,1-.8,1-1.54,1-.55,0-2.25.17-2-.75s1.92-1,2.59-.92C428,298.68,428.45,298.85,428.57,299.3Zm-2.7,19.32c.36-.31,1.2-1,1.54-.31.19.39-.26,1.12-.53,1.39-.46.47-1.67,2.47-2.49,1.55C423.7,320.49,425.31,319.12,425.87,318.62Zm-7.4-6c.53-.27,2.65-1.29,2.79-.16.08.5-.87,1.07-1.21,1.39s-.73.67-1.12,1c-.55.46-1.57,1.46-2.4,1.24C414.49,315.55,417.75,313,418.47,312.64Zm-5.49-6.9c.6-.21,3.17-1.35,3.4-.09.11.62-1.21,1.08-1.67,1.26-.7.28-2.34,1.39-3,.86C410.76,307.08,412.36,306,413,305.74Zm-6.08-4.29c-.27-1.57,3.84-2.26,4.49-.94.39.79-1.62,1.16-2.19,1.26S407,302.27,406.9,301.45Z" style="fill:#2B003F"></path><path d="M386.15,303.94c.37,3.36,4.51,9,4.51,9,.38-4.25,5.32-9.33,10.09-10.75s5.79.13-.45,3.55-6.58,10.69-6.58,10.69c1.2,1.91,5.8,5.33,5.8,5.33s2.4-10.24,7-12,5.79-1.2,1,4.23-4,10.95-4,10.95c1.59,1.71,6.31,3.57,6.31,3.57s-.58-6.57,2.73-9.73,4-.91,1.94,2.26-2.08,9.2-2.08,9.2c2.16,1.8,7.29,3.57,7.29,3.57s-.57-6.43,1.92-9.4,3.45-2,2,1.75.29,7.8.29,7.8a22.5,22.5,0,0,0,6.79,2.76c3.9.85,4.82,2.86,4.82,2.86C440.7,336.23,443,330,443,330a61,61,0,0,0-4.53-6.59c-2.1-2.51-5.11-4.18-2.63-4.56S445.89,327,445.89,327c1.59-2.19,3.7-6,3.7-6-4.94-1.4-8.9-6.73-11.75-8.24s-6.88-2.35-5.14-4.43,7.57,2.14,10.94,4.65a75.77,75.77,0,0,0,7.27,4.67c2.95-5.29,1-11.78,1-11.78a54.83,54.83,0,0,0-18.14-4.7c-5.66-.37-5.76-3.54,2.73-3.29a41.15,41.15,0,0,1,14.87,3.27c-.41-6.32-2.62-8.44-2.62-8.44-4.19-2.28-13.71-1.65-16.77-.08s-11.91,2-2.72-1.66,19.12-1.67,19.12-1.67c-1.46-6.86-8.34-10.53-8.34-10.53a20.11,20.11,0,0,0-9.73,3.84c-3,2.09-6.51,7.43-7.13,3s7.84-8.12,7.84-8.12c-15-.82-15.9,6.71-15.46,10.64.34,3.11,1.79,5.83,1.07,6.94h0a1.28,1.28,0,0,1-1.08.49,2.2,2.2,0,0,1-1.14-.22h0c-1.73-.82-3-3.62-4.87-5.8-2.26-2.65-6.87-4.88-15.52-1.47s-8.51,9.7-8.51,9.7c1.74-3.4,7.45-5.29,12.64-5.52s7.67,1.85,7.27,3.36-8.21-.33-12.06.54S385.78,300.57,386.15,303.94Zm21.24-8.4c-.83-.26-.39-1,.32-1C409,294.41,408.53,295.89,407.39,295.54Zm15.77-7.63c.13.63-.44,1.15-.75,1.66s-.75,1.3-1.16.69c-.31-.46,0-1.61.13-2.1s.29-1,.76-1.05S423.08,287.51,423.16,287.91Zm-.05,7.23c-.42.21-1.14.5-1-.28a1.69,1.69,0,0,1,1.68-.95C424.85,294.25,423.54,294.94,423.11,295.14Zm5.46,4.16c.23,1-.8,1-1.54,1-.55,0-2.25.17-2-.75s1.92-1,2.59-.92C428,298.68,428.45,298.85,428.57,299.3Zm-2.7,19.32c.36-.31,1.2-1,1.54-.31.19.39-.26,1.12-.53,1.39-.46.47-1.67,2.47-2.49,1.55C423.7,320.49,425.31,319.12,425.87,318.62Zm-7.4-6c.53-.27,2.65-1.29,2.79-.16.08.5-.87,1.07-1.21,1.39s-.73.67-1.12,1c-.55.46-1.57,1.46-2.4,1.24C414.49,315.55,417.75,313,418.47,312.64Zm-5.49-6.9c.6-.21,3.17-1.35,3.4-.09.11.62-1.21,1.08-1.67,1.26-.7.28-2.34,1.39-3,.86C410.76,307.08,412.36,306,413,305.74Zm-6.08-4.29c-.27-1.57,3.84-2.26,4.49-.94.39.79-1.62,1.16-2.19,1.26S407,302.27,406.9,301.45Z" style="opacity:0.30000000000000004"></path><path d="M416.62,295s21.34,16.22,18.95,44.52C440.7,336.23,443,330,443,330a61,61,0,0,0-4.53-6.59c-2.1-2.51-5.11-4.18-2.63-4.56S445.89,327,445.89,327c1.59-2.19,3.7-6,3.7-6-4.94-1.4-8.9-6.73-11.75-8.24s-6.88-2.35-5.14-4.43,7.57,2.14,10.94,4.65a75.77,75.77,0,0,0,7.27,4.67c2.95-5.29,1-11.78,1-11.78a54.83,54.83,0,0,0-18.14-4.7c-5.66-.37-5.76-3.54,2.73-3.29a41.15,41.15,0,0,1,14.87,3.27c-.41-6.32-2.62-8.44-2.62-8.44-4.19-2.28-13.71-1.65-16.77-.08s-11.91,2-2.72-1.66,19.12-1.67,19.12-1.67c-1.46-6.86-8.34-10.53-8.34-10.53a20.11,20.11,0,0,0-9.73,3.84c-3,2.09-6.51,7.43-7.13,3s7.84-8.12,7.84-8.12c-15-.82-15.9,6.71-15.46,10.64C415.89,291.16,417.34,293.88,416.62,295Zm8.36,4.54c.19-.84,1.92-1,2.59-.92.45.07.88.24,1,.69.23,1-.8,1-1.54,1C426.48,300.24,424.78,300.45,425,299.53Zm-2.88-4.67a1.69,1.69,0,0,1,1.68-.95c1.07.34-.24,1-.67,1.23S422,295.64,422.1,294.86Zm-.72-6.7c.11-.37.29-1,.76-1.05s.94.4,1,.8c.13.63-.44,1.15-.75,1.66s-.75,1.3-1.16.69C420.94,289.8,421.25,288.65,421.38,288.16Z" style="fill:#2B003F"></path><path d="M416.62,295s21.34,16.22,18.95,44.52C440.7,336.23,443,330,443,330a61,61,0,0,0-4.53-6.59c-2.1-2.51-5.11-4.18-2.63-4.56S445.89,327,445.89,327c1.59-2.19,3.7-6,3.7-6-4.94-1.4-8.9-6.73-11.75-8.24s-6.88-2.35-5.14-4.43,7.57,2.14,10.94,4.65a75.77,75.77,0,0,0,7.27,4.67c2.95-5.29,1-11.78,1-11.78a54.83,54.83,0,0,0-18.14-4.7c-5.66-.37-5.76-3.54,2.73-3.29a41.15,41.15,0,0,1,14.87,3.27c-.41-6.32-2.62-8.44-2.62-8.44-4.19-2.28-13.71-1.65-16.77-.08s-11.91,2-2.72-1.66,19.12-1.67,19.12-1.67c-1.46-6.86-8.34-10.53-8.34-10.53a20.11,20.11,0,0,0-9.73,3.84c-3,2.09-6.51,7.43-7.13,3s7.84-8.12,7.84-8.12c-15-.82-15.9,6.71-15.46,10.64C415.89,291.16,417.34,293.88,416.62,295Zm8.36,4.54c.19-.84,1.92-1,2.59-.92.45.07.88.24,1,.69.23,1-.8,1-1.54,1C426.48,300.24,424.78,300.45,425,299.53Zm-2.88-4.67a1.69,1.69,0,0,1,1.68-.95c1.07.34-.24,1-.67,1.23S422,295.64,422.1,294.86Zm-.72-6.7c.11-.37.29-1,.76-1.05s.94.4,1,.8c.13.63-.44,1.15-.75,1.66s-.75,1.3-1.16.69C420.94,289.8,421.25,288.65,421.38,288.16Z" style="opacity:0.4"></path><path d="M434.49,323.94a50.72,50.72,0,0,0-2.89-8.8c4.82.76,8.86,3.57,12.6,6.4,0,0,0,0,0,0-3.79-3.35-7.65-6.69-13-7.31a55.67,55.67,0,0,0-4.4-7.87c3.37-.53,6.58-1.15,10-.67a33,33,0,0,1,10.33,3.1c.05,0,0-.07,0-.09a26.28,26.28,0,0,0-20.65-2.78,56.46,56.46,0,0,0-4.6-5.86c2.14-2.83,6.28-3.87,9.69-4.32a57.88,57.88,0,0,1,13-.23c.11,0,.1-.19,0-.2a42.18,42.18,0,0,0-14.57-.09c-2.55.41-7.47,1.65-8.58,4.36-.73-.79-1.41-1.48-2-2.07a15.86,15.86,0,0,1,2.25-4.21,23.2,23.2,0,0,1,5.88-4.75c3.72-2.22,7.8-4.3,12.17-4.79h0c-2.34-.25-4.6.62-6.73,1.5a48.26,48.26,0,0,0-7,3.47c-2.92,1.83-6.44,4.71-7.26,8.13-1.31-1.22-2.14-1.85-2.14-1.85h0a1.28,1.28,0,0,1-1.08.49,2.2,2.2,0,0,1-1.14-.22c1,.84,1.94,1.7,2.84,2.58a45.7,45.7,0,0,0-11.74.1c-3.57.47-8.07.86-11,3.1,0,0,0,.14,0,.11,3.57-1.71,7.36-2.24,11.27-2.61a59,59,0,0,1,7.28-.26c1.71.06,3.38.47,5.09.52.71.72,1.38,1.46,2,2.2-2.82-.22-6.18,1-8.55,1.93a29.26,29.26,0,0,0-11.34,8c-.05.06,0,.23.09.15a27.32,27.32,0,0,1,20.68-9.07q1.53,1.83,2.84,3.72c-7.87.69-14.77,8.88-16.68,15.63,0,.1.09.23.14.09a24.66,24.66,0,0,1,16.94-14.95l.1-.05q1.45,2.16,2.67,4.33c-3.69,1.44-6.43,5.11-8.18,8.32s-3.22,7-2.8,10.55c0,.22.27.06.26-.1-.24-4.33,2-8.34,4.52-11.84a26,26,0,0,1,3.67-4.18,21,21,0,0,1,3-2,67.44,67.44,0,0,1,4.4,10.06A14.37,14.37,0,0,0,428.75,333c0,.21.24,0,.24-.1a14.91,14.91,0,0,1,1.11-6.55c.56-1.34,1.54-2.64,2.07-4a65.84,65.84,0,0,1,3.4,17.14,50.44,50.44,0,0,0-.74-13.93,28,28,0,0,1,3.55,6.94c0,.09.11,0,.1,0A17.45,17.45,0,0,0,434.49,323.94Z" style="fill:#2B003F"></path><path d="M413.08,388.82a8.05,8.05,0,0,0,5-.5c1.13-.5.66-3.57.66-3.57l-5.62,1.11Z" style="fill:#2B003F"></path><path d="M413.08,388.82a8.05,8.05,0,0,0,5-.5c1.13-.5.66-3.57.66-3.57l-5.62,1.11Z" style="opacity:0.2"></path><path d="M411,378.8l-4.7,6.54a11.6,11.6,0,0,0,7,2.28c4.21.16,5.37-1.43,5.52-1.76.41-.87.23-2.63.08-4.41-.11-1.34-.08-3.64-.89-3.64Z" style="fill:#263238"></path><path d="M426.92,273.85A46.46,46.46,0,0,0,420,254l-11.5,34.56-2.59,9.38s.18,21.49.51,26.64,3.78,47,3.78,47l.62,8.26c5.85,1.62,7.08.08,7.13-1.2s.71-6.37.71-6.37,4.49-30.12,4.71-34.55a35.11,35.11,0,0,0-2.64-15.24C421.87,311.71,428.61,288.36,426.92,273.85Z" style="fill:#ffa8a7"></path><path d="M410.17,371.54l.62,8.26c5.85,1.62,7.08.08,7.13-1.2,0-.29.06-.79.12-1.38-.94,2.12-2.87,1.5-4-1.51s-5.95-29.29-5.95-29.29C409.11,358.73,410.17,371.54,410.17,371.54Z" style="fill:#f28f8f"></path><path d="M418.63,258.64l-30.22-5s-5.26,58.14-5.16,69.72c.06,8.15.49,9,1.85,12.05,2.35,5.32,15,38.11,16.88,44.47,0,0-6.35,1.48-9.45,1.76s-2.6,2.36-.78,3a32.4,32.4,0,0,0,7.34,1.08c3.33.23,6.22.09,9.06.13,4.9.06,5.12-2.22,5.12-2.22h0q-1.09-4.78-1.84-9.63c-1.49-9.62-4.67-29.19-6.78-35.52a41.84,41.84,0,0,0-5.49-10l9.31-39.92c11.24-3.34,14.92-8.14,16.22-15C425.75,267.94,420.73,262.08,418.63,258.64Z" style="fill:#ffa8a7"></path><path d="M383.74,387.24a6.2,6.2,0,0,0,.21,2c.28.67,3.38,2.23,6.53,2.46s8.81,0,10.74.69,6,2.31,9.46,1.84,4.23-2.29,4.23-2.29l-.24-3.06Z" style="fill:#2B003F"></path><path d="M383.74,387.24a6.2,6.2,0,0,0,.21,2c.28.67,3.38,2.23,6.53,2.46s8.81,0,10.74.69,6,2.31,9.46,1.84,4.23-2.29,4.23-2.29l-.24-3.06Z" style="opacity:0.35000000000000003"></path><path d="M400.73,379.47c-.32,1-1.75.89-2.67,1-1.77.28-3.54.59-5.33.76a22.53,22.53,0,0,0-6.39,1.75c-2.68,1.22-2.31,5.31,3,6.74,3.42.91,9.26.19,12.76,1.24s6,2.62,10.07,1.46c2.77-.79,2.89-3,2.62-4.67-.45-2.73-.52-5.92-2-6.21.07.34.29.85.11,1.13,0,.05-.66.31-.75.36-.29.17-.57.36-.87.52a9.23,9.23,0,0,1-4.15,1c-.82,0-1.57-.06-2-.79a14.33,14.33,0,0,1-.84-2.52,6.9,6.9,0,0,0-.83-1.65,2.71,2.71,0,0,0-.56-.65,4.59,4.59,0,0,0-2.27-1.19c0,.38.14.75.15,1.14A1.6,1.6,0,0,1,400.73,379.47Z" style="fill:#37474f"></path><path d="M386.45,339.5c-3.71-7.79-4.73-12.53-3.2-28.85s3.2-37.45,3.2-37.45l37.31-11.86c2.75,6.46,4.77,15.44,4.36,22.93s-6.28,37.62-6.28,37.62,1.45,6.23,1.66,8.91a51.42,51.42,0,0,1,.17,8.92c-.26,3.84-2.4,14.31-2.4,14.31a8.36,8.36,0,0,1-5.8,1.53,15.91,15.91,0,0,1-6.83-2.63s-1.29-13.17-1.7-16.13-.85-8.16-1.06-12c-.28-5,0-23.35,0-23.35l-6,26.34,2.67,4.84c2.31,4.48,5,14.58,5.65,22.13a31.79,31.79,0,0,1-6.41,3.44,16.82,16.82,0,0,1-7.51.54S388.07,343.16,386.45,339.5Z" style="fill:#37474f"></path><path d="M405.88,301.44l2.86-11.67s9.78-1.24,14.93-8.07c0,0-3.31,9.21-12.6,9.87l-4,10.3-1.49,7.23Z" style="fill:#263238"></path><path d="M423.92,221.31c-1.16-3.46-2.08-5.84-8.79-5.54l-.93,0c-2.39.35-5.73.55-11.87,1-.77.14-5.27.93-6.49,1.09l-1.07.59c-4.07,1.33-5.86,8.39-6.25,19.58s-2.07,35.12-2.07,35.12,8.74,4.68,22.54,2.87c12.34-1.62,17.82-8.89,17.39-8a120.65,120.65,0,0,0-7.05-18C425.83,234.18,425.65,226.44,423.92,221.31Z" style="fill:#2B003F"></path><path d="M397.08,217.72s-3.66-.13-11.2,1.88-25.31,6.1-25.31,6.1-20.89-10.06-21.79-11.15-.4-3.31-.15-4.53.66-3.93.93-4.69c.48-1.33-1.49-1-2.64.27s-1.68,3.67-2.25,4.09-5-4.64-7.11-7.08-3.13-4.14-4.56-3.13c-1,.72-.36,2.17,1.16,4.26a30.2,30.2,0,0,1,2,2.76c.18.38-.38.68-.61.88-.41.37-1.15,1-1.2,1.55a5,5,0,0,1-.06.95c-.19.69-1,1-1.3,1.7-.17.49,0,1-.08,1.56-.06.33-.24.63-.3,1a2.29,2.29,0,0,0,.68,1.8c1.5,1.78,3.54,2.46,5.51,3.54,1.63.91,3.31,1.3,5.19,2.14s23.66,16.65,27.6,16.65c5.13,0,31.12-4.69,31.12-4.69C401.24,226.5,397.08,217.72,397.08,217.72Z" style="fill:#ffa8a7"></path><path d="M402.15,276.48a47.56,47.56,0,0,0,6.84-.41c11.25-1.48,16.91-7.65,17.38-8a114.61,114.61,0,0,0-7-17.9c3.29-8.07,4.86-14,5.4-18.63-.54,3.35-5.49,16.32-12,20.21,0,0,3.65.57,6.78,4.86S420.11,275.56,402.15,276.48Z" style="fill:#37474f;opacity:0.1"></path><path d="M391.07,390.16s-1.1-3.56-.2-5.52,1.81-3.38,2.51-3.45c0,0,.19-.54-2.44-.59s-6.07,1.69-6.93,4a3,3,0,0,0,2,4.5A11.9,11.9,0,0,0,391.07,390.16Z" style="fill:#2B003F"></path><path d="M391.07,390.16s-1.1-3.56-.2-5.52,1.81-3.38,2.51-3.45c0,0,.19-.54-2.44-.59s-6.07,1.69-6.93,4a3,3,0,0,0,2,4.5A11.9,11.9,0,0,0,391.07,390.16Z" style="opacity:0.2"></path></g></g></svg>
